<svg version="1" xmlns="http://www.w3.org/2000/svg" width="854.667" height="854.667" viewBox="0 0 641.000000 641.000000"><path d="M0 320.5V641h641V0H0v320.5zm383.7-168.6c-.1 3.3-.3 3.6-1.3 2.3-.6-.9-1-2.3-.9-3.1.2-.9.4-1.9.4-2.4.1-.4.5-.7 1-.7.6 0 .9 1.8.8 3.9zm-10.7.7c0 .7-2.7 3.4-3.4 3.4-.4 0-.1-.9.6-2 1.2-1.9 2.8-2.7 2.8-1.4zm3.5 3.4c1.3 1.4 2.2 1.7 3 1 1.6-1.3 2.8 1.3 1.4 2.7-.6.6-.2 1.9 1.1 3.5 1.1 1.5 2 2.9 2 3.2 0 .3 1.8 2.4 4 4.8s4 4.8 4 5.4c0 .6.9 1.9 1.9 2.8 1.5 1.4 2 1.5 2.4.4.2-.7.2-.3 0 1-.3 2.1 2.2 6.7 5.7 10.2.8.9 2.5 3.3 3.7 5.5 1.4 2.7 2.7 3.9 4 3.8 1-.1 1.2 0 .6.3-.9.4-.9 1.2.3 3l1.6 2.4 1.9-2.1c2.1-2.5 2.5-1.8.8 1.3-.9 1.6-.7 2.4.5 3.6 1.1 1.1 1.6 1.2 1.6.4 0-.9.4-.9 2 0 1.1.7 2 1.7 2 2.2 0 .4-.7.3-1.5-.4-1.2-1-1.5-1-1.5.2 0 1.5 4 5.4 5.3 5 .4-.1.7.3.7.9 0 .5.6.7 1.3.3.8-.5.7-.2-.2.9-1.2 1.6-1 2.2 1.7 5.5 1.7 2 3.5 3.6 4.1 3.5.6-.2.8.3.5 1.1-.3.8 1 2.8 2.8 4.5 1.8 1.7 3.5 2.6 3.6 2.1.2-.6.8-.7 1.4-.4.7.4.6.9-.2 1.4-1.6 1 .8 5 2.7 4.3.8-.3 1.1 0 .8.8-.2.8.2 2.3 1.1 3.4 1.3 1.7 1.6 1.8 2.5.5.7-1.1.8-.9.4 1-.4 2 .3 3.4 3.6 6.7 2.2 2.4 4.7 4.3 5.5 4.3.9 0 1.2-.5.9-1-.7-1.2 1.2-4 2.7-4 .5 0 .4 1-.3 2.1-.9 1.7-.8 2 .3 1.5.7-.3 2.1-.9 3.1-1.2 1.2-.5 1.6-1.3 1.1-2.8-.5-1.7-.4-1.9.7-.9 2 2 3.1 1.5 2.4-1-.5-1.6-.4-1.8.3-.8.8 1.2 2.2.6 7.2-3.1 4.8-3.6 5.7-4.7 4.3-5.1-1.6-.4-1.6-.5.2-.6 1.3 0 2.7 1.1 3.9 3.2 1.5 2.4 2 2.8 2.3 1.5.2-.9 1.1-1.9 1.9-2.2 1.1-.4 1.1 0-.3 2-1.5 2.4-1.5 2.6.2 4.2 1 .9 1.5 1.2 1.2.7-.3-.7 1.1-1.1 3.8-1.1 3.1 0 4.1.4 3.8 1.3-.3.7-.9 1.3-1.4 1.3-.5 0-.9.7-.9 1.5s.5 1.5 1 1.5c.6 0 1-.5 1-1.2 0-.6.3-.9.6-.5.3.3.2 1.3-.3 2.2-.8 1.4-1.1 1.3-2.9-.6-1.4-1.6-1.5-2.3-.6-2.6 1.6-.6 1.5-2.3-.2-2.3-2.5 0-2.5 2.7.1 5.9 1.4 1.7 2.9 2.8 3.4 2.5.5-.3.9 0 .9.6 0 1.6 5.6 7.1 6.5 6.2.5-.4.5-.2.1.5-.7 1.3 4.6 7.9 13.7 16.8 3.4 3.3 6.1 6.3 6.2 6.6 0 .4 2.3 3.1 5 6.1 4.5 4.9 7.5 6.4 7.5 3.6 0-.6-.7-.8-1.5-.4-.8.3-1.5.1-1.5-.4 0-1.3 2.7-1.3 3.5 0 .3.5.2 1.8-.4 2.8-1.3 2.4.2 4.7 3.1 4.7 1.8 0 2.2.5 2 2.4-.1 1.7.2 2.2 1.2 1.8 1-.4 1.3-.1.9.9-.3.7 0 1.4.6 1.4s1 .4.9.9c-.4 1.4 10.4 12.4 11.1 11.3 1.2-1.9 5.1 2.3 4.6 5-.4 1.9 1.1 4.1 7.6 10.8 4.4 4.7 8.4 8.4 8.8 8.3.5-.1 1.4 1 2 2.4l1.2 2.6-8.3-.8c-9.8-.9-10.5-.9-13.8 0l-2.5.6 2.4-1.4 2.4-1.4-3.2-1.1c-1.7-.6-3.9-.8-4.8-.5-1.1.4-1.4.2-.9-.5.4-.7-.4-1.4-2.1-1.8-1.5-.3-5.8-1.6-9.5-2.9-3.6-1.3-6.9-2.1-7.2-1.7-.3.3-.6 0-.6-.7s-.4-1-1-.6c-1.2.8-5.1-2.6-4.3-3.8.4-.6-.1-.8-1.1-.4-1.4.6-1.6.3-1.1-1.3s.3-1.9-1.1-1.3c-1.3.5-1.6.3-1.1-1 .3-.8.3-1.7-.1-1.9-.4-.2-2.3-2.4-4.1-5-1.9-2.6-3.8-4.5-4.4-4.1-.6.3-.7.2-.4-.3.3-.6.2-1.6-.4-2.4-.6-1-.9-1.1-.9-.3 0 .7-.5 1.3-1.1 1.3-.6 0-.8-.8-.4-2 .8-2.5-1.8-7.5-5-9.6-1.4-.9-2.5-2.2-2.5-2.8 0-1.6-9.3-16.2-13-20.4-1.6-1.9-3-3.8-3-4.2 0-.5-1-2.1-2.3-3.7-1.3-1.5-2.6-3.6-3-4.6-.7-1.9-2.2-2.2-3.2-.7-.3.5-1.2 1-1.8 1-.7 0-.6-.4.3-1 1.3-.9 1.3-1.1 0-2.1-1.3-.9-1.2-1 .3-.5 1.1.4 1.7.2 1.5-.5-.8-2.3-2.4-1.2-4.5 3.1-1.3 2.5-2.3 5.1-2.3 5.7 0 .7-.4 1.3-1 1.3-1.4 0-1.3-.4 1-4.5 2.8-5 1.7-4.3-2.2 1.2-1.7 2.7-3.8 5.4-4.5 6.1-.7.7-1.3 1.9-1.3 2.5 0 .7-1 1.7-2.2 2.2-1.3.6-2.2 1.5-2.1 2.1.1.6-2.3 3.5-5.3 6.5-5.1 4.9-5.6 5.3-6.8 3.6-.7-.9-1.8-1.7-2.3-1.7-.6 0-1.6-.7-2.3-1.5-.9-1-.9-1.5-.1-1.5.6 0 1.1.5 1.1 1.2 0 .6.3.9.6.6.8-.9-1.5-4.9-2.5-4.3-.5.2-.8-.3-.7-1.3 0-1-.6-1.7-1.6-1.6-1 .1-1.4-.4-1.1-1.1.2-.8-.3-2.5-1.3-4l-1.7-2.7-1.4 2.4c-1.4 2.2-1.3 1.3.2-2.4.5-1.2-.2-2.5-2.1-4.3-1.5-1.4-2.4-2.8-2.1-3.2.4-.3-.4-2.1-1.8-3.9-1.4-1.8-2.5-3.5-2.5-3.9 0-1.4-12.4-17.4-13.1-16.9-.5.3-.6-.1-.4-.9.3-.7-.8-3.2-2.5-5.5-1.6-2.3-3-4.9-3-5.7 0-.8-.4-1.5-1-1.5-.5 0-1 .7-1 1.5s-.5 1.5-1.1 1.5c-.6 0-.8-.9-.4-2.1.5-1.3.2-2.5-.6-3.1-1.1-.8-1-.9.4-.4 2.3.7 2.2-.5-.3-3.7-1.1-1.4-2-3-2-3.6 0-.6-.4-1.1-1-1.1-.5 0-1-.6-1-1.3 0-.6-.8-2.1-1.6-3.2-1.5-1.9-1.6-1.9-2.9-.2-1.2 1.7-1.3 1.6-1.1-.6.1-1.7.5-2.3 1.6-1.9 1.3.5 1.3.3.1-1.1-.7-.9-1.7-1.4-2.2-1.1-.5.3-.6-.1-.4-.8.3-.8-.4-2.4-1.5-3.6-2.5-2.6-2.4-2.6-4.4-.6-.9.8-1.6 1.1-1.6.5 0-.5.7-1.4 1.6-1.9 1.5-.9 1.5-1.2-.2-4.1-1-1.7-2.4-3.1-3.2-3.1-.7 0-1.1-.4-.7-1 .9-1.4-1.7-5.1-3-4-.6.5-1.5-.1-2.2-1.6-1-2.2-1-2.4.3-1.4.9.8 1.4.9 1.4.2 0-1.5-2.2-2.7-4.5-2.4-1.5.2-1.7.1-.6-.7 1.7-1.1.9-3.6-1.8-5-1.7-1-2.1-.7-3.1 2.4-.6 1.9-1.6 3.5-2.1 3.5-1.3 0-1.1-1.8.4-2.3.6-.2.9-.7.6-1.1-.4-.4-1.7.7-3 2.5-1.9 2.7-2 3.1-.6 2.6 1.5-.6 1.6-.3.7 1.3-.6 1.1-1.9 2-3 2-1.4 0-1.8.5-1.3 1.7.4 1 .2 1.4-.4 1-.6-.4-1.6 0-2.3.8-1.1 1.3-1 1.4.3.9 1.4-.5 1.4-.2.4 2-.8 1.8-1.3 2.1-1.5 1-.3-1.2-.7-1.3-1.8-.3-1.9 1.5-1.8 2.6.4 3.3.9.3.4.4-1.1.2-2-.3-2.7 0-2.3 1 .3.7 0 1.6-.6 2-.7.4-.8.3-.4-.4s.3-1.2-.3-1.2c-.5 0-2 2-3.2 4.5-1.2 2.5-2.4 4.3-2.7 4-.2-.2-2.2 1.9-4.5 4.8-6.5 8.4-6.3 8.2-5 7.3.9-.5 1.1-.2.7.8-.3.9-1.2 1.2-2.1.9-1.3-.5-1.5-.2-1.1 1.5.4 1.2.3 2-.1 1.7-.4-.2-2.5 1.4-4.6 3.5-2.2 2.2-3.4 4-2.7 4 .7 0 1.5-.7 1.9-1.5.7-2 6.7-5.3 6.1-3.3-.3.7-1.4 1.4-2.5 1.6-1.1.2-2.6 1.4-3.3 2.8-.8 1.3-2.1 2.3-2.9 2.2-1.2-.2-1.5.4-1.3 2.4.1 1.4-.3 3-.9 3.4-.9.5-1 0-.6-1.5.3-1.5.1-2.1-.6-1.8-.7.2-1.1 1.1-1.1 2 .1 1-.4 1.3-1.4 1-1.2-.5-1.4-.1-.9 1.9.9 3.3-2.8 8.1-4.3 5.8-1-1.6-1.3-.8-1.1 2.7.1 1.1-.3 2.4-.8 2.8-.6.3-1.1-.1-1.1-1.1 0-1.6-.2-1.6-2.1.2-1.7 1.6-2.2 1.6-2.9.4-.6-.8-1-2.1-1-2.8 0-.6-.4-1.2-.9-1.2s-1.2-1-1.5-2.3c-.7-2.1-.7-2.1-1.6-.2-.7 1.5-.8.9-.5-2 .3-2.2.2-3.4-.1-2.8-1 2.2-2.2 1.4-2.9-2-.4-1.7-1.2-3.5-1.7-3.8-.5-.3-1-1.7-1-3-.1-1.3-.8-3.3-1.5-4.4-1.3-1.9-1.4-1.8-.8 1 .5 2.9.5 2.9-.6.5-.6-1.4-1.2-3.4-1.3-4.6-.1-1.1-1-3.4-2.1-5s-1.8-3.3-1.7-3.7c.1-.5-.3-.7-1-.5-.7.3-1.3 1.5-1.3 2.8 0 1.7.7 2.6 2.5 3 1.6.4 2.1.8 1.3 1.3-2.9 1.8-6.9-2.8-5.8-6.4.3-.9.1-2-.5-2.4-1.6-1-1.2-2.8.5-2.1 1.3.4 1.4.2.5-1.4-.6-1.1-1.5-2-2-2-1.3 0-5 5-5.6 7.7-.4 1.4-1.9 3.8-3.4 5.5-1.5 1.6-3.4 4.2-4.1 5.6-.7 1.5-1.9 3.5-2.7 4.4-.8.9-1.1 2.2-.6 2.9.4.8.3 1-.4.5-.7-.4-1.7.4-2.4 2.1-.7 1.5-1.6 3-1.9 3.3-.4.3-2.6 3.9-5 8-2.3 4.1-4.5 7.7-4.8 8-.8.6-2.5 3.5-5.2 8.5-2.3 4.2-9.8 14.6-11.3 15.7-.6.4-1 2.3-1 4.2 0 2-.3 3-.7 2.4-.5-.8-1.4.2-2.6 2.7-4 8.7-6.2 10.4-8.4 6.4-.9-1.8-1.3-1.9-2.1-.8-.7 1-.8.8-.3-.8.4-1.6 0-2.6-1.9-3.9-1.4-.9-2.3-2-2-2.5.3-.5 0-.9-.6-.9s-1.3.7-1.6 1.5c-.4.8-1.1 1.5-1.7 1.5-.5 0-.2-.9.8-2s1.5-2.3 1.1-2.7c-.4-.4-1.1-.1-1.6.7-.5.8-1.2 1.1-1.7.7-.4-.5-.1-1.2.6-1.6 1.6-1 .2-4-3.6-8l-2.4-2.6-4.1 4.5c-8.6 9.4-12.8 15.4-11.5 16.3.7.5.3.7-1.3.5-2.1-.3-2.5.1-2.2 2.2.1 1.7-.1 2.1-.7 1.2-.6-1.1-1.3-.7-3 1.6-1.1 1.7-2.1 3.5-2.1 4s-.7 1.3-1.6 1.6c-1 .4-1.3 1.3-.9 2.8.4 1.6.3 1.9-.3 1-.7-1.1-1.4-.7-3.1 1.6-2.3 3.4-2.7 5.2-.9 5.2.6 0 .8.3.5.6-.4.4-1.3.1-2.1-.5-1.1-1-1.6-.8-2 .7-.4 1.1-1.8 3.2-3.1 4.8-1.4 1.6-2.3 3.5-2 4.3.4.9 0 1.1-1 .7-1.1-.4-1.9.3-2.5 2-1.3 3.3-3.8 2.8-6.5-1.1-3.9-5.9-6.5-8.8-7.2-8.1-.4.4-.1 1.1.6 1.6 1.2.7 1.2 1.1-.2 2.4-1.4 1.5-1.5 1.3-1.2-2.2.3-4-.2-4.9-9.6-14.9-2.1-2.4-3.9-4.6-3.9-5-.1-1.4-3.8-5.3-5-5.3-.7 0-4.5 1.6-8.6 3.5-4 1.9-7.8 3.5-8.4 3.5-.6 0-4.8 2-9.4 4.5-4.6 2.4-13.4 6-19.7 8-6.3 1.9-12.3 3.9-13.4 4.5-1.1.5-4.9 2.3-8.5 4-3.6 1.6-8.7 4.3-11.5 5.8-2.7 1.6-9.5 5.2-15 8.1-5.5 3-10.7 5.9-11.5 6.6-3.1 2.5-3.8 2.6-3.3.3.3-1.3 1.1-2.9 1.6-3.6.8-1 .7-1.6-.4-2.2-1.1-.7-1.1-1.2-.1-2.2.9-.9 1.2-.9 1.2 0 0 2 2.7 1.3 4.7-1.2 1-1.3 2.9-2.6 4.1-3 2.5-.8 13.2-9.3 13.2-10.5 0-.5-1.1-.6-2.5-.3-1.4.2-2.5 0-2.5-.7s2-1 5.3-.8c5 .2 5.5 0 11-4.8 3.1-2.8 5.2-5.2 4.7-5.3-.6-.2-1-.8-1-1.4 0-.7.5-.6 1.4.1 1.1 1 2.1.9 4.3-.4 5.6-3.2 10.1-6.1 13.4-8.8 2.9-2.3 3.2-2.9 1.9-3.8-1.2-.8-1.1-.9.6-.4 2.5.7 9.3-3 14.6-7.9 2.1-1.9 6.6-4.8 10-6.5 3.5-1.6 7.2-3.8 8.3-4.8 1.1-1 3.7-2.7 5.8-3.8 2-1.1 3.7-2.2 3.7-2.6 0-.3 1.8-1.2 4-1.9s4.5-1.9 5.1-2.7c2.1-2.5 3.6-1.9 10 3.9 1.6 1.5 3.5 2.5 4.2 2.2.8-.3 2 .3 2.8 1.2 1.2 1.5 1.2 1.6-.9 1-2.9-1-2.9 1 .1 2.5 1.2.7 2.4 1.5 2.7 1.8 1.6 2.1 9 5.4 11.8 5.3 1.7-.1 3.2.3 3.2.8 0 1.7 4.1 1.1 6.8-1.1 12.9-10 22.2-19 22.2-21.3 0-2.7 1.7-5.3 2.7-4.2.4.5.2 1.1-.4 1.3-1.4.5-1.8 2.3-.5 2.3.5 0 3.8-2.8 7.4-6.3 8.3-7.8 20.3-18.6 22.5-20.2.9-.7 1.3-1.7.9-2.3-.5-.8-.1-1 1-.5 1.2.4 1.5.3 1-.5-.4-.7-.1-1.2.6-1.2 2 0 14.2-12.6 13.4-13.9-.5-.7-.1-.8 1.1-.4 1.6.6 1.6.5.4-1-.8-1-1.1-2.1-.7-2.4.4-.4 1.1-.2 1.5.5.6.9 1.2.7 2.6-.8 1.8-2 1.8-2.1-.1-3.5-2.2-1.7-1.2-2 1.6-.5 1.6.8 2.7.3 6.2-3 3.5-3.4 4-4.3 2.8-5.1-1.3-.9-1.2-1 .2-.5 1.8.5 3.3-.7 18.4-15.5 4.9-4.9 9.8-8.9 10.7-8.9.9 0 3.3 2.1 5.2 4.7 4.3 5.9 10.1 11.6 9.2 9-.4-1.1-.3-1.6.4-1.2.5.4.9 1.4.8 2.3-.3 3.7.1 4.3 2.3 3.6 2-.6 2.1-.5 1 .9-1.5 1.7 0 3.2 2.3 2.3.9-.3 1.2 0 .8 1-.6 1.6 1.3 1.9 2.2.3.4-.6 1.4-.8 2.2-.5 1.1.5 1.3.2.9-1s-.1-1.4 1.4-.9c1.1.4 2 .2 2-.3 0-1.4-2.7-2.2-4.7-1.5-1.6.6-1.6.5-.5-1 1.3-1.5 1.6-1.5 3.8 0 1.4.9 2.8 1.3 3.2.9.3-.4 0-1.1-.8-1.7-1.1-.7-.8-.8 1.1-.4 1.6.4 3.2.1 4-.7.8-.7 3-2.5 4.9-3.9 2-1.5 3.6-3.6 3.7-4.9.2-2.9 1.2-3.8 2.2-2.1 1.1 1.7 2.3-.1 1.5-2.2-.3-.8.2-1.7 1-2 1.1-.4 1.3-.1 1 1.1-.3.9.8.2 2.5-1.7 1.6-1.9 4.2-4.3 5.8-5.3 1.8-1.3 2.1-1.8.8-1.3-1.6.5-1.8.4-.7-.6.6-.7 1.2-2.1 1.2-3 0-1.1 1.1-2 3-2.4 1.8-.4 3-1.3 3-2.2 0-1.2.7-1.4 3.2-.9 1.7.3 2.9.3 2.5 0-.9-.9 1.3-3.5 2.3-2.9.4.3 1.3-.2 2-1s.9-1.5.5-1.5-.2-.7.5-1.5 1.8-1.5 2.4-1.5c.6 0 .4.5-.4 1-.9.6-1 1-.3 1s2.9-1.8 4.9-4c2.1-2.2 4-4 4.4-4 .4 0 1.5.9 2.5 2zm7 3.9c-.3.6-1.1 1.1-1.6 1.1s-.4-.6.3-1.4c1.4-1.6 2.4-1.3 1.3.3zm-33.8 8.7c-.3.3-1.2.4-1.9.1-.8-.3-.5-.6.6-.6 1.1-.1 1.7.2 1.3.5zm40.3-.2c0 .3-.4.8-1 1.1-.5.3-1 .1-1-.4 0-.6.5-1.1 1-1.1.6 0 1 .2 1 .4zm-44 1.6c0 .5-.4 1-1 1-.5 0-1-.5-1-1 0-.6.5-1 1-1 .6 0 1 .4 1 1zm-7.5 11c-.4 1.2-.9 1.9-1.2 1.7-.3-.3-.2-1.5.2-2.7.4-1.2.9-1.9 1.2-1.7.3.3.2 1.5-.2 2.7zm65.5 3.3c0 .2-.9 1.2-2 2.2-1.7 1.6-2 1.6-2 .2 0-.8.8-1.8 1.8-2 .9-.3 1.8-.5 2-.6.1 0 .2.1.2.2zm-111.4 2.2c.8 2 2.1 1.9 2.7-.3.4-1.4.5-1.4.6.3 0 1.1-.3 2.6-.8 3.3-.6 1.1-1.4.6-3-1.7-1.2-1.7-1.7-3.1-1.1-3.1.6 0 1.3.7 1.6 1.5zm113.8 3.1c.9 2.2-.3 3.2-1.4 1.4-1.2-1.9-1.2-3-.1-3 .5 0 1.2.7 1.5 1.6zm-81.5 6.3c-2.4 2.1-4.5 3.5-4.7 3-.4-1.1 1.5-3 5.1-4.8 1.5-.8 2.7-1.9 2.7-2.4 0-.6.3-.7.6-.4.4.4-1.3 2.4-3.7 4.6zm46.8-4.3c-.3.3-1.2.4-1.9.1-.8-.3-.5-.6.6-.6 1.1-.1 1.7.2 1.3.5zm-67.7 3c0 .8-.4 1.2-1 .9-.5-.3-1-1-1-1.6 0-.5.5-.9 1-.9.6 0 1 .7 1 1.6zm103.8 1.9c-.3.3-.9-.2-1.2-1.2-.6-1.4-.5-1.5.5-.6.7.7 1 1.5.7 1.8zm-39.8 0c0 .8-.4 1.5-1 1.5-.5 0-.7-.7-.4-1.5.4-.8.8-1.5 1-1.5.2 0 .4.7.4 1.5zm11.7 1.7c-.3.8-.6.5-.6-.6-.1-1.1.2-1.7.5-1.3.3.3.4 1.2.1 1.9zm-20.3 8.2c-.6 1.5-2.4 2.3-2.4 1.1 0-.8 2.4-3.4 2.8-3 .1.1 0 1-.4 1.9zm-107.7 2.2c-.3.3-1.2.4-1.9.1-.8-.3-.5-.6.6-.6 1.1-.1 1.7.2 1.3.5zm137.3 3c0 .8-.4 1.2-1 .9-.5-.3-1-1.3-1-2.1s.5-1.2 1-.9c.6.3 1 1.3 1 2.1zm-39.7.4c-.3 1.1-.9 2-1.5 2-.5 0-.4-.9.2-2 .6-1.1 1.2-2 1.4-2 .2 0 .2.9-.1 2zm1.8 3.3c-1 .9-1.1.8-.5-.6.3-1 .9-1.5 1.2-1.2.3.3 0 1.1-.7 1.8zm36.4-.3c.3.5-.1 1-1 1s-1.3-.5-1-1c.3-.6.8-1 1-1 .2 0 .7.4 1 1zm44.4 4.9c-.2.6-1-.2-1.7-1.7-1.1-2.5-1.1-2.5.4-1 .9.9 1.5 2.1 1.3 2.7zm-2.9 1.9c0 1.5-.2 1.5-1 .2-1.3-2-1.3-3.3 0-2.5.6.3 1 1.4 1 2.3zm-85 1.6c0 .6-.5.4-1.1-.4-.8-1.1-1.2-1.2-1.6-.3-.2.7-.9 1.3-1.4 1.3-.6 0-.5-.9.1-2.1.9-1.6 1.4-1.8 2.6-.8.8.6 1.4 1.7 1.4 2.3zm52-2.4c0 .5-.5 1-1.1 1-.5 0-.7-.5-.4-1 .3-.6.8-1 1.1-1 .2 0 .4.4.4 1zm-121.3 9.5c-.7 1.7-3.7 2.1-3.7.4 0-.5.5-.7 1-.4.6.3 1.3-.1 1.6-1 .4-.9.9-1.4 1.1-1.1.3.3.3 1.2 0 2.1zm4.3.5c0 .5-.4 1-1 1-.5 0-1-.5-1-1 0-.6.5-1 1-1 .6 0 1 .4 1 1zm10.4 7.6c.3.8.2 1.2-.4.9-.6-.3-1-1-1-1.6 0-1.4.7-1.1 1.4.7zm45.6-.1c0 .8-.7 1.5-1.6 1.5-1.4 0-1.4-.3-.4-1.5.7-.8 1.4-1.5 1.6-1.5.2 0 .4.7.4 1.5zm110 3.5c0 .5-.5 1-1.1 1-.5 0-.7-.5-.4-1 .3-.6.8-1 1.1-1 .2 0 .4.4.4 1zm31 0c0 .5-.5 1-1.1 1-.5 0-.7-.5-.4-1 .3-.6.8-1 1.1-1 .2 0 .4.4.4 1zm-258 4c-1.2 1.6-2.7 3-3.3 2.9-.9 0-.8-.2.1-.6.6-.2 1.2-.9 1.2-1.5 0-.9 2.8-3.7 3.8-3.8.2 0-.6 1.3-1.8 3zm192 .5c0 .5-.5.3-1-.5s-1-2-1-2.5c0-.6.5-.3 1 .5s1 1.9 1 2.5zm-146.5.6c1 3 .2 3.2-1.2.3-.6-1.3-.7-2.4-.3-2.4.5 0 1.2.9 1.5 2.1zm63.5-.1c0 .5-.4 1-1 1-.5 0-1-.5-1-1 0-.6.5-1 1-1 .6 0 1 .4 1 1zm-37 1.6c0 .8-.5 1.2-1 .9-.6-.4-.8-1.1-.5-1.6.9-1.4 1.5-1.1 1.5.7zm161.4.7c1.8 1.8 3.9 5.8 3.3 6.4-.3.2-1.3-.9-2.3-2.6-1-1.7-2.2-3.1-2.6-3.1-.4 0-.8-.5-.8-1 0-1.4.9-1.3 2.4.3zm4 .3c.9 2.4.2 2.6-1.2.4-.7-1.1-.8-2-.3-2s1.2.7 1.5 1.6zm-195.3 2.7c-.8.8-1.1.7-1.1-.4 0-2 1.3-3.4 1.8-1.9.3.7-.1 1.7-.7 2.3zm152.9-1.2c0 .5-.4.9-1 .9-.5 0-1-.7-1-1.6 0-.8.5-1.2 1-.9.6.3 1 1 1 1.6zm3.7 3.6c.7 1 2.3 3.6 3.4 5.8l2 4-2.1-2.4c-1.8-2.1-2.3-2.3-3.1-1-.7 1-.8.5-.4-1.7.4-2.3.2-3.3-.9-3.7-.9-.4-1.6-1.1-1.6-1.7 0-1.5 1.1-1.2 2.7.7zm-212.8 3.2c-1.3 1.1-2.6 1.7-2.9 1.4-.6-.6 3-3.3 4.3-3.3.5 0-.1.9-1.4 1.9zm50.6 3.7c-2.4 3.7-2.9 2.3-.8-1.9 1.1-2.1 1.9-2.9 2.1-2.1.2.8-.4 2.6-1.3 4zm249-4.6c.3.6-.1.7-.9.4-1.8-.7-2.1-1.4-.7-1.4.6 0 1.3.4 1.6 1zm-2.5 3c0 .5-.2 1-.4 1-.3 0-.8-.5-1.1-1-.3-.6-.1-1 .4-1 .6 0 1.1.4 1.1 1zm10.8 9.1c-.3.8-.7.3-1.1-1-.4-1.7-.3-2.1.5-1.3.5.5.8 1.6.6 2.3zm-2.4.3c.3 1.4 1.3 3.2 2.2 4.1.9.9 1.3 1.9.9 2.3-.4.4-1 .1-1.2-.6-.3-.7-1.1-1.9-2-2.7-.8-.8-1.1-1.5-.7-1.5.5 0 .3-.5-.4-1.2-1.4-1.4-1.6-2.8-.3-2.8.5 0 1.2 1.1 1.5 2.4zM104 273c0 .5-.7 1-1.6 1-.8 0-1.2-.5-.9-1 .3-.6 1-1 1.6-1 .5 0 .9.4.9 1zm37.6 3.8c-.4.3-1.4-.2-2.4-1.2-1.6-1.8-1.6-1.8.6-.6 1.3.6 2.1 1.4 1.8 1.8zM188 275c0 .5-.7 1-1.5 1s-1.5-.5-1.5-1c0-.6.7-1 1.5-1s1.5.4 1.5 1zm59.7 1.2c-.3.8-.6.5-.6-.6-.1-1.1.2-1.7.5-1.3.3.3.4 1.2.1 1.9zm272 .4c.2 1.3.1 1.5-.4.4-.3-.8-1.1-1.9-1.7-2.3-.7-.6-.6-.7.4-.4.8.2 1.6 1.2 1.7 2.3zm-3.3 1c.9 2.4.2 2.6-1.2.4-.7-1.1-.8-2-.3-2s1.2.7 1.5 1.6zm-32.9 2.4c-.4 1.2.3 2.5 2.1 3.9 1.5 1.2 2.4 2.4 2.1 2.7-.3.4-2.1-.8-3.9-2.6-2-2-2.8-3.5-2.1-3.7.7-.3.9-1.1.6-2-.4-1.1-.3-1.4.6-.9.6.4.9 1.6.6 2.6zm-369.9-.4c-.3 2.1-1.4 2.7-3.2 2-1.2-.5-1.4-1-.5-1.9 1.4-1.7 3.9-1.8 3.7-.1zm33.4-.6c0 .5-.2 1-.4 1-.3 0-.8-.5-1.1-1-.3-.6-.1-1 .4-1 .6 0 1.1.4 1.1 1zm98 0c0 .5-.5 1-1.1 1-.5 0-.7-.5-.4-1 .3-.6.8-1 1.1-1 .2 0 .4.4.4 1zm-67 2.9c0 .6-.4 1.3-1 1.6-.5.3-1-.1-1-.9 0-.9.5-1.6 1-1.6.6 0 1 .4 1 .9zm341 .1c0 .5-.2 1-.4 1-.3 0-.8-.5-1.1-1-.3-.6-.1-1 .4-1 .6 0 1.1.4 1.1 1zm-414.3 4.2c-.3.8-.6.5-.6-.6-.1-1.1.2-1.7.5-1.3.3.3.4 1.2.1 1.9zm134.3-1.3c0 .5-.7 1.4-1.5 2.1-1.6 1.4-1.8 1-.9-1.4.6-1.7 2.4-2.2 2.4-.7zm-35 1.1c0 .5-.2 1-.4 1-.3 0-.8-.5-1.1-1-.3-.6-.1-1 .4-1 .6 0 1.1.4 1.1 1zm-47.9 2.8c-.7.2-1.8-.1-2.3-.6-.8-.8-.4-.9 1.3-.5 1.3.4 1.8.8 1 1.1zm336.3 2.2c1.4 2.2 2.6 4.2 2.6 4.5 0 1.1-2.5-1.9-4-4.8-.8-1.6-1.6-2.4-1.8-1.8-.2.7.1 1.8.8 2.6.9 1.1.9 1.8-.2 2.9-1.2 1.2-1.4.8-1.2-2.8.2-5.9.2-6 3.8-.6zm-395.7-.9c-2.1 1.1-4.3 1.6-5 1.2-.7-.5.3-1.2 2.8-1.9 5.8-1.8 6.5-1.6 2.2.7zm71.7 1.2c-.3.9-1.3 1.7-2.2 1.7-1.3 0-1.3-.2.3-1.3 1.1-.9 1.5-1.9 1-2.8-.6-1-.5-1.1.4-.3.6.6.9 1.8.5 2.7zm359.2-1.1c0 1-.1 1.8-.2 1.8 0 0-.8-.8-1.7-1.8-1.5-1.6-1.5-1.8.1-1.8 1 0 1.8.8 1.8 1.8zm-365.6-.8c0 .9-3 1.4-3.5.6-.4-.6.3-1 1.4-1 1.2 0 2.1.2 2.1.4zm300.5.6c.3.5.1 1-.4 1-.6 0-1.1-.5-1.1-1 0-.6.2-1 .4-1 .3 0 .8.4 1.1 1zm-263.1 1.6c1.1 2.8.6 3.8-.9 1.8-.8-1-1.5-2.2-1.5-2.7 0-1.3 1.8-.7 2.4.9zM89 295.1c0 1.1-.4 1.7-1 1.4-.6-.3-.7.1-.4.9.3.9.2 1.6-.4 1.6-.6 0-1.9.3-2.9.6-1.4.4-1.5.4-.4-.4.7-.5 1.1-1.4.7-2-.3-.6.3-1.3 1.4-1.7 1.1-.3 2-1.1 2-1.6s.2-.9.5-.9.5.9.5 2.1zm369.7.1c-.3.8-.6.5-.6-.6-.1-1.1.2-1.7.5-1.3.3.3.4 1.2.1 1.9zM197 295c0 .5-.4 1-1 1-.5 0-1-.5-1-1 0-.6.5-1 1-1 .6 0 1 .4 1 1zm258.5 1.1c1.1 1.6.1 1.9-1.3.3-.7-.8-.8-1.4-.3-1.4s1.3.5 1.6 1.1zm43.1 5c1.1 1.2 1.2 2.2.4 4-.9 1.9-1 2-.7.3.2-1.1-.2-2.9-.9-3.9-.8-1-1.3-2.8-1.3-3.9.1-2.1.1-2.1.6-.1.3 1.1 1.1 2.7 1.9 3.6zm-53.6-1.5c0 .8-.4 1.2-1 .9-.5-.3-1-1.3-1-2.1s.5-1.2 1-.9c.6.3 1 1.3 1 2.1zm7.5.4c-.3.5-1.3 1-2.1 1s-1.2-.5-.9-1c.3-.6 1.3-1 2.1-1s1.2.4.9 1zm-238.2.6c.9.9-.4 3.5-1.4 2.8-.5-.3-.9-1.2-.9-2 0-1.4 1.2-1.9 2.3-.8zM82 302c0 .5-.4 1-1 1-.5 0-1-.5-1-1 0-.6.5-1 1-1 .6 0 1 .4 1 1zm373.4.5c-.6 1.6-2.4 2.1-2.4.7 0-1.1 1.1-2.2 2.1-2.2.5 0 .6.7.3 1.5zm-4.7 1.1c-.3.3-1.2.4-1.9.1-.8-.3-.5-.6.6-.6 1.1-.1 1.7.2 1.3.5zM218 306c0 .5-.4 1-1 1-.5 0-1-.5-1-1 0-.6.5-1 1-1 .6 0 1 .4 1 1zm-144 1c0 .5-.5 1-1.1 1-.5 0-.7-.5-.4-1 .3-.6.8-1 1.1-1 .2 0 .4.4.4 1zm149.3 1.7c-.7.2-2.1.2-3 0-1-.3-.4-.5 1.2-.5 1.7 0 2.4.2 1.8.5zm-99 2c-.7.2-2.1.2-3 0-1-.3-.4-.5 1.2-.5 1.7 0 2.4.2 1.8.5zm383.7 4.2c0 1.1-.4.9-1.5-.5-.8-1-1.5-2.5-1.5-3.3 0-1.1.4-.9 1.5.5.8 1 1.5 2.5 1.5 3.3zm-326.2-.8c-.3.8-.7.3-1.1-1-.4-1.7-.3-2.1.5-1.3.5.5.8 1.6.6 2.3zm-117.9-1.2c.7.5.9 1.1.4 1.4-.6.4-1.9 0-2.9-.8-1.5-1.1-1.6-1.4-.4-1.5.8 0 2.1.4 2.9.9zm47.7 1.8c-1 1-1.9-.5-1-1.8.6-1.1.8-1.1 1.2 0 .2.7.1 1.5-.2 1.8zM59 314c.8.5 1.2 1.2.9 1.5-.8.8-3.9-.5-3.9-1.6s1.1-1.1 3 .1zm49.3 2.7c-.7.2-2.1.2-3 0-1-.3-.4-.5 1.2-.5 1.7 0 2.4.2 1.8.5zm3.7 2.3c0 .5-.5 1-1.1 1-.5 0-.7-.5-.4-1 .3-.6.8-1 1.1-1 .2 0 .4.4.4 1zm22.5 0c.3.5-.1 1-.9 1-.9 0-1.6-.5-1.6-1 0-.6.4-1 .9-1 .6 0 1.3.4 1.6 1zm41.5 1.6c0 .3-.7 1.2-1.5 2-1.6 1.7-1.8 1.4-.9-1 .6-1.5 2.4-2.3 2.4-1zm377.7 0c-.3.3-1.2.4-1.9.1-.8-.3-.5-.6.6-.6 1.1-.1 1.7.2 1.3.5zm6 1.4c.3 1 .2 1.1-.4.4-.4-.6-1.5-1.4-2.3-1.7-1.1-.5-.9-.6.4-.4 1.1.1 2.1.9 2.3 1.7zM96 322c0 .5-.5 1-1.1 1-.5 0-.7-.5-.4-1 .3-.6.8-1 1.1-1 .2 0 .4.4.4 1zm43 1c0 .5-.4 1-1 1-.5 0-1-.5-1-1 0-.6.5-1 1-1 .6 0 1 .4 1 1zm376.9 3.9c-.1 1.3-.2 1.3-.6-.2-.2-.9-.9-1.7-1.4-1.7-.5 0-.9-.5-.9-1.1 0-.8.5-.8 1.5.1.8.7 1.4 2 1.4 2.9zm-423.2-2.3c-.3.3-1.2.4-1.9.1-.8-.3-.5-.6.6-.6 1.1-.1 1.7.2 1.3.5zm-2.7 2.7c1.1.5.9.6-.4.4-1.1-.1-2.1-.9-2.3-1.7-.3-1-.2-1.1.4-.4.4.6 1.5 1.4 2.3 1.7zm52.4-.8c.3.9 0 1.5-.9 1.5-.8 0-1.5-.7-1.5-1.5s.4-1.5.9-1.5 1.1.7 1.5 1.5zm-59.1.2c-.7.2-1.9.2-2.5 0-.7-.3-.2-.5 1.2-.5s1.9.2 1.3.5zm484.7 5.5c0 .5-.7.3-1.5-.6-.8-.8-1.5-1.8-1.5-2.2 0-.3.7-.1 1.5.6s1.5 1.7 1.5 2.2zm-2.2 1.9c1.6 2.4 3 3.3 4.5 3.2 2-.3 1.9-.2-.3.8-1.7.7-2.6.7-2.8-.1-.2-.6-.9-1.6-1.5-2.3-4.1-4.4-5.1-6-3.7-5.5.8.2 2.5 2 3.8 3.9zM35 334c0 .5-.5 1-1.1 1-.5 0-.7-.5-.4-1 .3-.6.8-1 1.1-1 .2 0 .4.4.4 1zm113 .5c-.7.8-1.7 1.5-2.2 1.5-.6 0-.5-.7.2-1.5s1.7-1.5 2.2-1.5c.6 0 .5.7-.2 1.5zm-87.5.5c-.3.5-1.6 1-2.8.9-2.1 0-2.1-.1-.2-.9 2.8-1.2 3.7-1.2 3 0zm5.2.6c-.3.3-1.2.4-1.9.1-.8-.3-.5-.6.6-.6 1.1-.1 1.7.2 1.3.5zm510.3 2.5c0 .4-.7.6-1.5.3-.8-.4-1.5-1-1.5-1.5 0-.4.7-.6 1.5-.3.8.4 1.5 1 1.5 1.5zM18 340c0 .5-.4 1-1 1-.5 0-1-.5-1-1 0-.6.5-1 1-1 .6 0 1 .4 1 1zm134.7 2.2c-.3.8-.6.5-.6-.6-.1-1.1.2-1.7.5-1.3.3.3.4 1.2.1 1.9zm7 1c-.3.7-.5.2-.5-1.2s.2-1.9.5-1.3c.2.7.2 1.9 0 2.5zM574 341c0 .5-.4 1-.9 1-.6 0-1.3-.5-1.6-1-.3-.6.1-1 .9-1 .9 0 1.6.4 1.6 1zm-417.5 2c.3.5.1 1-.4 1-.6 0-1.1-.5-1.1-1 0-.6.2-1 .4-1 .3 0 .8.4 1.1 1zm374 .8c-.3.3-1.1 0-1.8-.7-.9-1-.8-1.1.6-.5 1 .3 1.5.9 1.2 1.2zm4.2-1.2c-.3.3-1.2.4-1.9.1-.8-.3-.5-.6.6-.6 1.1-.1 1.7.2 1.3.5zm41 1.9c0 .8-.4 1.2-.9.9-.5-.3-.6-1-.3-1.5.9-1.3 1.2-1.1 1.2.6zm-533.7.6c0 .4-.7.9-1.5 1.3-.9.3-1.5 0-1.5-.8 0-.7.7-1.3 1.5-1.3s1.5.4 1.5.8zm540-.1c0 .5-.4 1-1 1-.5 0-1-.5-1-1 0-.6.5-1 1-1 .6 0 1 .4 1 1zm-34 2c0 .5-.4 1-.9 1-.6 0-1.3-.5-1.6-1-.3-.6.1-1 .9-1 .9 0 1.6.4 1.6 1zm-1.3 2.6c-.3.3-1.2.4-1.9.1-.8-.3-.5-.6.6-.6 1.1-.1 1.7.2 1.3.5zm5 0c-.3.3-1.2.4-1.9.1-.8-.3-.5-.6.6-.6 1.1-.1 1.7.2 1.3.5zm31.8 1.4c.3.5-.1 1-.9 1-.9 0-1.6-.5-1.6-1 0-.6.4-1 .9-1 .6 0 1.3.4 1.6 1zm-34.7.7c-1 .2-2.6.2-3.5 0-1-.3-.2-.5 1.7-.5s2.7.2 1.8.5zM22 356.6c0 .9-3.2 3.3-4.4 3.4-.5 0-.1-.9.9-2 1.8-2 3.5-2.6 3.5-1.4zm14 62.8c0 1.2-.2 2.5-.6 2.8-1 1-.4 65.3.6 65.6.6.2 1 .8 1 1.3 0 .6-.6.7-1.2.2-.7-.4-1.7-.8-2.3-.8-.5 0-1.1-.9-1.2-2l-.3-2 .9 2c.6 1.3 1-9.8 1-30.3.1-22.3-.2-32.2-1-32.2-.6 0-.3-.7.6-1.6 1.1-1.1 1.4-2.5 1-4.1-.4-1.6-.2-2.2.5-1.8.5.3 1 1.6 1 2.9zm2.3-1.8c-.5 1.5-.4 1.5 2 0 2-1.4 4.4-1.7 11-1.4 8.4.3 8.5.3 7.6 2.6-.5 1.4-.5 2.1 0 1.8.5-.3 1.2.1 1.5 1 .3.8.2 1.2-.4.9-1.4-.8-1.3.5.5 5.4.8 2.2 1.2 4.1.8 4.1-.3 0 0 .6.6 1.4.7.8.9 2.5.5 4.2-.5 2.1-.4 2.5.6 1.9.8-.5 1.1-.4.7.2-.8 1.3 2 14.2 3.5 16.1.7.9.8 1.3.2.9-.7-.4-.9.4-.6 2.4.2 1.6.9 2.9 1.4 2.9.5 0 .6-.5.3-1-.4-.6-.2-1.6.3-2.3 1-1.3 1.3-3.3 1.3-8.2 0-1.9.2-2.5.8-1.7.8 1.3 3.7-11.8 3.3-15.1-.1-1 .5-3.1 1.3-4.7s1.2-3.5.9-4.3c-.3-.8-.1-1.8.4-2.1.6-.3.8-1.6.4-2.8-.3-1.3-.1-1.9.5-1.5.6.4 1.6 0 2.4-.9 1-1.2 3.2-1.5 11-1.2 8.8.2 9.8.5 10.3 2.2.3 1.1.3 2.2.1 2.5-.3.2-.5-.1-.5-.7s-.9-1.6-2.1-2.2c-1.9-1.1-2-1-.7 1.2 1 1.8 1.2 9 .9 33.1-.3 23.4 0 31.1.9 32.2.9 1 .9 1.5.1 1.5-1.2 0-1.5 4.2-.4 5.4.4.3 1.3-.4 2-1.6l1.4-2.3-.7 2.4c-.3 1.3-.1 2.6.4 3 .7.4.8 1.2.2 2.1-.8 1.3-1 1.2-1-.3 0-1-.5-1.5-1-1.2-.6.3-1.3-.1-1.6-.9-.9-2.4-2.4-1.9-2.1.6.1 1.5-.4 2.3-1.6 2.4-1.2.1-1.3 0-.2-.3.8-.2 1.5-.8 1.5-1.3 0-1-3.8-.1-4.6 1.1-.3.5-1.1.9-1.7.9-.7 0-.6-.4.3-1 1.3-.8 1.3-1-.2-1-.9 0-2 .5-2.4 1.1-.4.8-.9.7-1.5-.2-.7-1.1-1.1-1.1-1.7-.2-.4.6-.8-.7-.8-3l-.1-4.2 1.3 3.2c.8 1.8 1.9 3.3 2.4 3.3 1.3 0 1.3-1.7-.1-2.2-2-.7-2.8-8.6-2.5-24.4.2-8.7 0-14.8-.4-13.4-.7 2.1-.8 2.2-1 .5-.1-1.9-.2-1.9-1 .1-.5 1.2-.7 4.2-.5 6.8.1 2.5-.1 4.4-.5 4.1-1.2-.7-3.2 7.5-2.5 10.5.4 1.6.2 3.7-.4 4.7-.8 1.4-1 1.1-.6-1.7l.5-3.5-1 3c-.6 1.6-.7 4.3-.4 5.9.4 1.9.3 2.6-.5 2.2-.6-.4-1.1-.1-1.1.7 0 .8-.8 2.5-1.9 3.8-1 1.3-1.6 3-1.4 3.6.3.7 0 1.3-.7 1.3-.6 0-.8-.5-.5-1 .4-.6-.7-1-2.5-1-1.7 0-4-.5-5.1-1-1.6-.9-1.9-.7-1.9 1 0 1.1-.3 2-.7 2-.5 0-.8-1.1-.8-2.5s.3-2.5.7-2.5c.3 0 .4-.9.1-2-.3-1.1-.9-2-1.4-2-.5 0-.6.8-.3 1.7.3 1-.2.7-1.1-.7l-1.6-2.5.6 3c.4 2.4.3 2.6-.5 1.3-1.1-1.9-.3-6.8 1.1-6.8.5 0 .6.8.2 1.7-.4 1.3-.3 1.5.5.8.6-.6.8-2.3.5-4-.6-2.6-.7-2.7-1.5-1-.5 1.3-.6.7-.2-1.8.4-3 .2-3.7-.7-3.1-.9.5-1 .2-.5-1.1.4-1 .2-2.1-.3-2.5-.6-.3-1.1-3-1.2-5.9-.3-6.2-2.6-16.9-2.9-13.1-.1 1.4-.2 2.8-.2 3.1 0 .3-.3 2.2-.8 4.2-.4 2.1-.4 3.7.1 3.7s.9-1.2.9-2.8c0-2 .3-2.3.9-1.3.6.9.6 2.2 0 3.2-1 2-1.4 23.3-.4 24.9.3.5.2 1-.4 1-.5 0-1.2-.8-1.4-1.8-.3-.9-.5-.2-.6 1.6-.1 1.9-.7 3.5-1.6 3.8-.8.4-1.2 1.1-.8 1.7.3.6.1.7-.5.3-.6-.4-2.1-.2-3.3.5-1.7.9-2 .8-1.4-.2.6-.9.3-1.1-.9-.6-.9.4-1.5.3-1.2-.2.3-.5-.1-1.1-.9-1.5-.9-.3-1.5-1.9-1.5-4.1 0-1.9-.3-3.5-.7-3.5-.5 0-.8-14.1-.8-31.4 0-17.3.3-31.2.7-31 .4.3.4-1.1.1-3.1-.4-2.2-.2-3.5.5-3.5.6 0 .9.7.5 1.6zm24.1-.1c-.4.8-1 1.5-1.5 1.5-.4 0-.6-.7-.3-1.5.4-.8 1-1.5 1.5-1.5.4 0 .6.7.3 1.5zm14-.8c-.5.5-1.2 1.2-1.6 1.8-.4.6-.8.2-.8-.8 0-.9.7-1.7 1.7-1.7.9 0 1.2.3.7.7zm202.9 1.5c.4-.5 1.7-.8 2.9-.4 1.6.4 1.9.2 1.3-.8-.6-1-.4-1.2.9-.7 1 .4 2.2.7 2.7.7.6 0 .7.5.3 1.1-.3.6-.1 1.5.6 1.9.7.4 1.3 2 1.3 3.4 0 1.5.3 2.9.7 3.1.5.3.6 2.3.4 4.5-.3 3.2 0 4 1.4 4.1 1.6.1 1.6.2 0 .6-2.5.6-2.3 2.2.2 2 2.2-.1 2.8-3.2.8-4-.8-.3-.6-.6.4-.6 1.1-.1 1.5-.6 1.2-1.5-.3-.8-.1-2.3.5-3.3.8-1.5 1-1.3.8 1.2-.1 2 .3 3 1.3 3.1.8 0 2.4.2 3.5.2 1.5.2 1.6.5.7 1.4-1 1-1.4 1-2.1 0-1-1.7-4.2-.4-3.9 1.7.2.9.9 2.1 1.6 2.7 1.3 1 2.4 9.4 1.3 9.2-.4-.1-1.4.2-2.4.7-1.4.6-1.5 1-.6 2.1s.8 1.4-.5 1.4c-.9 0-1.6-.7-1.6-1.5 0-2.2-1.7-1.8-2.3.5-.3 1-.4 8.3-.4 16.1.1 14.7.5 16.1 4.5 14.4 4.5-2 7.5-.4 7.5 4 0 2.1.2 2.2 1.8 1.2 2.3-1.4 2.5-2.7.3-2.7-.9 0-1.2-.5-.8-1.1.4-.6.7-3.7.8-6.9 0-3.2.4-5.6.9-5.3.5.3.6-.5.2-1.7-.5-1.5-.3-2 .3-1.6.6.3 2.3-.5 3.8-1.9s4.5-3 6.8-3.6c2.3-.5 5.2-1.4 6.6-1.9 2.3-.8 2.2-.8-.8-.6-1.7.2-3.5.6-3.9.9-.3.4-1.6.7-2.8.7-1.2 0-2.4.3-2.8.6-.3.4-2.4.7-4.7.8-2.4.2-3.5-.1-2.8-.6 1-.6 1-1-.2-1.8-2-1.3-.4-1.3 2.1.1 2.6 1.3 10.9.2 8.8-1.3-1.1-.7-.9-.8.6-.6 1.1.1 2.6-.1 3.4-.6.9-.6 1.2-.5.8 0-.7 1.2 6.9 1.1 8-.1.5-.4.2-.5-.6 0-1 .5-1.2.4-.7-.3.5-.9 1.3-.9 2.6-.2 2.4 1.3 3.3 1.3 2.4-.1-.4-.8.1-.9 1.7-.5 1.3.3 1.9.3 1.3 0-.7-.3-1-1.5-.7-2.7.4-2 .3-2.1-1-.5-.8 1-1.9 1.8-2.6 1.8-1.4 0-1.5-4.7-.1-5.5.7-.4.9.3.5 2.2-.3 1.5-.2 2.1.1 1.3.4-.8 1.2-1.8 1.8-2.2 1.3-.9-2.1-3.7-4.4-3.8-1 0-1.1.3-.4.8.7.4.8 1.5.3 2.9-1.1 2.9-2.1 3-1.7.2.4-3.1-2.9-5-4.6-2.7-.7 1-1.8 1.8-2.3 1.8-.5 0-1.6 1.2-2.3 2.7-2.3 4.5-5 6.3-7.7 5-1.3-.5-2.3-1.4-2.3-1.9s-.5-.6-1.1-.2c-.8.4-.9-.1-.4-1.6.6-1.9.4-2.2-.9-1.7-2.1.8-2-.1.2-2.6 1.6-1.9 1.6-2-.1-1.4-1.4.5-1.6.2-1.1-1.8.4-1.5.2-2.5-.5-2.5-.6 0-1.1-.5-1.1-1 0-2.1 2-.9 2.6 1.5.3 1.4 1 2.2 1.6 1.9.5-.3.4-1.1-.3-2-1.3-1.6.4-4.5 2.5-4.3 2.5.3 3.7-.2 3-1.3-.5-.7-.3-.8.6-.3.7.4 1.5.3 1.9-.2.3-.5 2.2-1.5 4.1-2.1 3.3-1.1 3.4-1.1.5-.8-1.7.3-3.7 0-4.5-.5-1.1-.8-.9-.9.7-.4 1.8.5 2.2.3 1.7-.9-.5-1.2 0-1.6 2.2-1.5l2.9.1-2.5.9c-2.1.7-1.9.8 1.2.5 2.6-.3 3.5-.1 3.2.8-.5 1.4 6.3 1.9 7.2.5.3-.5 1.9-.9 3.5-.9 1.8 0 2.8-.4 2.4-1-.3-.6-.1-1 .5-1 .7 0 .9.7.6 1.6-.5 1.2-.1 1.4 1.7.9 1.6-.5 1.8-.4.7.4-.8.5-2.8.8-4.5.5-2.8-.4-2.9-.4-.6.6 1.3.6 3.3.8 4.4.4 1.6-.5 1.9-.3 1.3 1.1-.5 1.3-.2 1.6.9 1.1.9-.3 1.4-.2 1.1.2-.2.4.3 1.6 1.1 2.7 1 1.3 1.4 1.4 1 .4-.3-.9 0-1.6.8-1.6 1 0 1.1.7.4 2.6-.9 2.5-.8 2.5.6.7.8-1.1 1.5-2.4 1.5-3 0-.5.2-.7.5-.4.3.3-.1 1.9-.8 3.6-1.4 3.3-1.1 11.5.4 10.6.5-.3.9 1 .9 2.8 0 1.8.2 5.8.5 8.8.3 4 0 3.3-.9-2.5l-1.3-8 .1 10.7c.1 5.9.4 10.8.9 10.8.4 0 .7 2.6.8 5.7 0 4.1.3 5.2.9 3.8.5-1.4.8-.4.6 3.2-.1 4.6-.4 5.3-2.1 5.3-1.1 0-3.1.3-4.5.5-2.2.5-2.2.4-.5-.4 1.9-.9 1.9-1-.2-1-1.2-.1-3.4-1.7-5.1-3.7-1.6-2-3.2-3.1-3.6-2.6-.3.5.1 1.2.9 1.6.8.3 1.5 1 1.5 1.6 0 1.5-3.8 5-5.2 4.9-1 0-1-.2 0-.6 1-.4.9-.9-.5-2-1.7-1.3-1.7-1.4.5-.8 1.3.4 2.2.2 2.2-.5 0-.6.5-.8 1-.5.6.3 1 .2 1-.3 0-2-3.3-2.1-5.9-.2-1.6 1-5 2.4-7.7 3-4.1.9-5.5.8-8.9-.7-2.2-.9-4.9-2.8-6-4-2.1-2.4-4.2-3.2-2.9-1.1.4.6.3.8-.2.5-.6-.3-1.6-.2-2.4.3-1.1.7-1.2 1.1 0 2.4 1.2 1.5 1.4 1.5 3 .1 1.2-1.1 2-1.3 2.5-.6.3.6.2 1.1-.4 1.1-.5 0-1.7.8-2.7 1.7-1.6 1.6-5.8 2.7-4.9 1.2.8-1.2-1.7-1.5-7.2-1.1-3.4.2-5.1.8-4.6 1.5.4.6.1.7-.7.2-1.8-1.1-8.1-1.5-7.5-.5.3.5-.3.7-1.2.5-1-.2-2.4-.4-3-.4-.7-.1-1.3-.5-1.3-1s2-.8 4.5-.6c2.5.1 4.2-.1 3.9-.6-.3-.5-1.2-.9-2-.9s-2-1.1-2.6-2.5c-.8-1.7-1.8-2.4-3.4-2.3-2.5.2-3.1 1.2-1.4 2.3.5.3.7 1.2.3 2-1.1 3-1.8 1.4-1.9-4.2 0-5.5 0-5.6 1.3-2.7l1.3 2.9-.6-3.3c-.6-3.7.2-4.3 1.6-1 .6 1.7.9 1.8.9.6.1-.9-.3-1.9-.8-2.2-.5-.3-.7-1.6-.5-2.9.4-2 .4-2.1-.5-.2-.8 1.7-1 1.5-1-1.3-.1-2 .3-3.1.9-2.7.6.4 1-3.7 1-11.7v-12.3l-3-1.7c-2.2-1.2-3-2.5-3-4.4 0-1.5-.7-3.2-1.6-3.9-1.4-.9-1.4-1.6-.5-3.3.6-1.2 1.6-2.2 2.1-2.2 1.5 0 1.2 1.1-.7 2.6-2.5 1.8-.9 2.9 1.6 1.2 1.2-.8 1.8-1.8 1.4-2.1-.3-.4-.1-.7.5-.7.7 0 1.2.5 1.2 1.1 0 .5.5.7 1.1.3.8-.4.3-1.2-1.2-2.1-2.4-1.4-2.4-1.4-.1-1 1.2.3 2.2.1 2.2-.4s-.4-.9-.9-.9-1.1-2.6-1.4-5.8c-.2-3.1-.6-6.6-.9-7.7-.3-1.1-.3-1.4-.1-.8.3.7.9 1.3 1.4 1.3.5 0 .9 2.8.9 6.2 0 3.4.2 5.9.4 5.7.8-.8 1.3-13.8.5-13.3-1 .6-1.2-1-.2-1.9.3-.4 1.1.1 1.8 1 .8 1 1.4 1.2 1.8.5zm11.2-1.2c-.4.6-.2 1.6.3 2.3 1.4 1.8 2.4 6.7 1.3 6.7-.5 0-1.1-1.2-1.4-2.8-.3-1.5-.8-3.7-1.2-5-.5-1.4-.3-2.2.4-2.2s.9.5.6 1zm4.6.5c.3-.2.3 1.2.1 3.2l-.5 3.6-1.3-3.9c-1.7-4.8-1.7-4.9-.1-3.5.8.6 1.6.9 1.8.6zm77.3-.4c-.2.4 0 1.8.5 3.1.6 1.2 1 1.7 1 1 .2-2.3 1.6-1.2 1.7 1.3.2 1.9-.1 2.3-1 1.6-.8-.7-1.2-.4-1.3.9-.2 2.3-4.3 8-5.7 8-.6 0-.4-.5.4-1.1 1.3-.9 1.3-1 0-.8-.8.1-2.3-.1-3.3-.6-1.2-.5-2.2-.2-3 .9-1 1.4-1.2 1.3-1.4-1-.1-1.9.1-2.3.8-1.3.6.9.9 1 .9.2 0-.6-.5-1.5-1-1.8-.8-.5-.8-9.5-.1-11.1.1-.1 2.8-.1 6-.1 3.3 0 5.8.4 5.5.8zm139.4 4.3c.3 5.6-1.3 8.6-4.4 8.6-.8 0-1.3.4-.9.9.5.9-1.7.8-9.5-.4-5.2-.8-5.1-.9-4.8 29.6.2 20.7.6 28.3 1.4 28.2 1.4-.3.7 3.4-.8 4.3-.6.4-.8-.3-.3-1.7.6-2.1.3-1.9-2 .9-1.9 2.3-3.3 3.1-4.5 2.7-1-.3-2.1-.1-2.5.5-.3.5-1.4 1-2.3.9-1.4 0-1.4-.2.3-.8 1.6-.7 1.4-.9-1.3-1.4-1.8-.4-3.2-1.2-3.2-1.9 0-.9.3-.9 1.2 0 2 2 3.2 1.3 1.4-.7-1-1.1-1.5-2.5-1.1-3 .3-.6.1-1.1-.5-1.1s-1.3.7-1.6 1.5c-.5 1.2-.8 1.2-2 0-2-1.9-1.7-4.2.6-6.5 2.4-2.4 2.7-.5.4 2.1-.9 1-1.3 2.3-.8 3 .5.9 1.1.7 2.1-.6 1.6-2.3 2-56 .3-55-.5.3-1 0-1-.7 0-.9-.3-.9-1 .2-.6.9-1 11.8-1 25.7 0 13.4-.3 24.3-.7 24.3-.5 0-.7-4.4-.6-9.7.2-5.4.4-16.8.5-25.3l.3-15.6-5.2.6c-2.8.3-4.9.2-4.7-.2.3-.4-.2-.8-1.1-.8-.8 0-2.3-1.3-3.4-3-1-1.6-2-2.8-2.3-2.5-.2.3-.5-.2-.5-1s.3-1.2.7-1c.3.2 1.1-1.1 1.8-2.8l1.1-3.2-2.1 2.5c-1.5 1.7-1.9 1.9-1.5.7.4-1 .7-2.2.7-2.7s12.3-.9 27.3-.9h27.2l.3 5.3zm-448.1.1c-.1 2.5-.3 3.1-1 2-.7-1.3-.2-5.5.8-5.5.2 0 .3 1.6.2 3.5zm9.5 3.1c-.6 1.2-.9.7-.9-1.6s.3-2.8.9-1.6c.5.9.5 2.3 0 3.2zm29.5 5.1c-.2 1.6-.4.3-.4-2.7s.2-4.3.4-2.8c.2 1.6.2 4 0 5.5zm170-4.5c-.3.8-.6.5-.6-.6-.1-1.1.2-1.7.5-1.3.3.3.4 1.2.1 1.9zM62.9 429c0 1-.3.8-.9-.5-1.2-2.7-1.2-4.3 0-2.5.5.8.9 2.2.9 3zm312.7.4c0 2.6-.3 3.3-1.4 2.8-1-.3-1.3-.1-.8.6.4.7.3 1.2-.3 1.2-.5 0-1.3-.5-1.6-1-.3-.6 0-1 .7-1 1 0 .9-.3-.2-1.1-1.2-.8-1-.9.8-.4 1.3.4 2.2.2 2.2-.4 0-.6-.5-1.1-1.1-1.1-.8 0-.8-.5.1-1.5 1.6-1.9 1.5-2 1.6 1.9zm84.4 0l2.5 3-2.9-1.8c-2.8-1.8-2.9-1.8-2.2 0 .5 1.3.4 1.6-.3.9-.6-.6-.8-2.1-.4-3.3.3-1.3.6-2.1.7-2 0 .2 1.2 1.6 2.6 3.2zm-386.3-.2c-.3.8-.6.5-.6-.6-.1-1.1.2-1.7.5-1.3.3.3.4 1.2.1 1.9zm199.3 2.3c0 .8-.4 1.5-1 1.5-.5 0-.7-.7-.4-1.5.4-.8.8-1.5 1-1.5.2 0 .4.7.4 1.5zm-172.3 36.7c-.1 6.8-.3 1.3-.3-12.2s.2-19 .3-12.3c.2 6.8.2 17.8 0 24.5zm23.6-35.1c.7 0 .1.5-1.2 1s-2.6.7-2.9.4c-.3-.3.1-.5.9-.5 1.2 0 1.1-.2-.1-1.1-1.2-.9-1.2-1 .3-.5 1 .3 2.4.6 3 .7zm15.1-.2c1.9.7 1.8.8-.4 1.4-1.3.3-2.6.4-2.9.2-.2-.3.2-.5 1-.6.8 0 .6-.4-.6-.9-2.5-1.1.2-1.2 2.9-.1zM165 434c-.8.5-1.7.7-1.9.4-.3-.3.1-.9.9-1.4.8-.5 1.7-.7 1.9-.4.3.3-.1.9-.9 1.4zm3.5-1c-.3.5.2 1 1.1 1 1 0 1.5.3 1.1.6-1 1-3.9-.5-3.2-1.6.3-.5.8-1 1.1-1 .3 0 .2.4-.1 1zm8.5 2.2c0 1.4-1.6.9-3.6-1.3-1.9-2.1-1.9-2.1.9-.8 1.5.7 2.7 1.6 2.7 2.1zm19.5-2.2c-.3.5-1.6 1.5-2.8 2.1-2.2 1.2-2.2 1.2-.3-1 1.9-2.1 4.3-3 3.1-1.1zm8.9.1c-.3.5-.1.9.4.9.6 0 1.3.8 1.6 1.7.6 1.6.6 1.6-1.1.1-1.8-1.6-2.2-1.8-4.3-1.8-2.2 0-.8-1.5 1.5-1.6 1.4-.1 2.2.2 1.9.7zm15.5.8c1.5 2.8-1.1 4.8-3.3 2.6-2.3-2.3-2-3.2.4-1 1.6 1.4 2 1.5 2 .4 0-.8-.5-2-1.2-2.7-.9-.9-.9-1.2 0-1.2.6 0 1.6.9 2.1 1.9zm28.5-.3c3.2.7 6.1 1.6 6.4 1.9.4.4-.7.3-2.3-.1-1.7-.4-4.7-.8-6.9-.7-2.4 0-3.3-.3-2.5-.8.9-.5.1-.8-2.4-.7-2 .1-4-.1-4.3-.5-1-1 5.8-.5 12 .9zm140.7-.3c-.6.6-2 .5-3.8-.1-2.8-.9-2.7-.9 1-.9 2.2.1 3.3.5 2.8 1zm7.4.5c-.3.3-1.1 0-1.8-.7-.9-1-.8-1.1.6-.5 1 .3 1.5.9 1.2 1.2zm16.2-1.2c-.3.3-1.2.4-1.9.1-.8-.3-.5-.6.6-.6 1.1-.1 1.7.2 1.3.5zm9.7.3c.4.5-.3.7-1.4.4-2.3-.6-2.6-1.3-.6-1.3.8 0 1.7.4 2 .9zm113 .4c-.9.5-3.2.4-5.2-.1-3.7-.9-3.6-.9 1.5-.8 3.3.1 4.6.4 3.7.9zm10.1-.2c-.4.5-2.3.9-4.3.8-3.2-.1-3.4-.2-1.2-.8 3.8-1.1 6.1-1.1 5.5 0zm5.5.4c0 .2-.7.5-1.5.9-.9.3-1.5 0-1.5-.9s.6-1.2 1.5-.9c.8.4 1.5.7 1.5.9zm24.1.2c1.3 1.7 1.3 1.7-.6.3-1.1-.8-2.2-1.6-2.4-1.7-.2-.2 0-.3.6-.3s1.7.8 2.4 1.7zm5.4-.7c-.3.5-1.1 1-1.6 1-.6 0-.7-.5-.4-1 .3-.6 1.1-1 1.6-1 .6 0 .7.4.4 1zm8.4.5c1.3.4 2.1.3 1.8-.1-.3-.5 1.1-1 3.1-1.1 3-.1 3.3 0 1.7.8-1.6.7-1.2.8 1.5.4s3.1-.2 2 .6c-1.2.8-.8.9 1.5.5l3-.5-3 1.4c-1.6.8-2.4 1.4-1.6 1.5.8 0 3 1.2 4.9 2.7 2 1.5 3.3 2.2 2.9 1.6-.3-.5 0-1 .7-1 .8 0 1.2.6.9 1.4-.3.7.7 3.7 2.1 6.7 3.1 6.3 4.4 18 2.8 24-.9 3.1-.8 4.5.4 6.8.9 1.7 1.3 3.2 1.1 3.5-.3.2-.8-.5-1.2-1.6-1-3.4-2.5-2.4-2.4 1.6.1 3.4.2 3.5.9 1.3.4-1.4.8-2 .9-1.3.1.6.4 1.9.8 2.9.4 1.2.3 1.5-.5 1-.7-.4-1.2-.2-1.2.4 0 .7-.5.6-1.4-.2-.7-.7-1.1-2-.9-2.8.3-1 .1-.9-.7.3-.6.9-.8 2.2-.5 2.7.4.6.1.9-.7.8-.7-.2-1.2.5-1.2 1.4.1 1-.2 1.6-.6 1.3-.4-.2-2.5.5-4.6 1.6l-3.9 2 4.8-.4c2.6-.2 4.4 0 4 .4-.5.4-3.7.9-7.2 1.2-3.7.3-5.8.1-5-.4 1-.6.4-.9-1.6-.9-1.7 0-3.6.5-4.1 1-.7.7-2 .7-3.4.2-1.9-.7-2.1-1-.7-1.5 1-.4 1.7-.2 1.7.3 0 .6.5 1 1 1 1.7 0 1.1-1.8-.9-2.5-1-.3-3-1.7-4.3-3l-2.4-2.4v2.7c.1 1.5.5 3.3.9 3.9.5.7.5 1.3 0 1.3-1 0-.9 16.3.2 17.9.4.7-.1 1.8-1.1 2.6-1.1.7-1.6 1.7-1.2 2.1.4.4 1.4.1 2.3-.6 1.2-1 1.5-1 1.5.4 0 1.1-.9 1.6-3 1.6-2.3 0-3-.4-3-2 0-1.1.7-2 1.5-2 1 0 1.5-.9 1.4-2.8 0-2.6-.1-2.6-.9-.5-.5 1.3-1.8 2.3-2.8 2.3-1.1 0-3.5.3-5.3.6-2 .3-2.9.2-2.2-.3.8-.6.9-1.4.3-2.3-.6-.9-1-16.6-1-36.5 0-29.2.2-35.4 1.5-37.1.8-1.2 1.2-2.3 1-2.6-.2-.2.6-.4 1.8-.3 2.6 0 8 3.2 7.3 4.3-.2.4.7.7 2.1.6 1.3 0 2.8-.5 3.1-1.1 1.2-1.9 7.8-4.1 10.8-3.7 2.5.4 2.6.3.8-.5-1.2-.5-4.4-.8-7-.7-2.7.2-4.3.1-3.5-.2 1.1-.4 1.1-.6 0-1.4-1.5-1.1-1.6-1.1 4 .7zm-364.4.5c-2.1.8-2.1.8 2.8 2.4 1.1.3 2.1 1.5 2.4 2.6.3 1.1 1 2 1.5 2s.6.6.2 1.2c-.5.9-.2.9.9-.1 1.9-1.5 2.2-3.1.6-3.1-.5 0-.7.5-.3 1.2.4.7.3.8-.4.4-.6-.4-.9-1.3-.5-2.1.3-.8-.1-1.5-.8-1.5-.7 0-.9-.3-.6-.6.4-.4 1.7 0 2.9.8 2 1.2 2.7 1.2 4.8 0l2.5-1.4-2.6.6c-1.8.4-3.4-.1-4.9-1.4-1.3-1.1-1.8-2-1.2-2 .6 0 1.4.5 1.7 1 .4.6 1.8 1 3.3 1 6.9 0 14.6 1.1 15.3 2.1.4.6 1.2.8 1.9.4.8-.5 1.1-.4.7.2-.4.6.6 2.1 2.1 3.4 1.4 1.3 2.1 1.7 1.5.8-1-1.3-.8-1.5 1.7-1.3 2.4.2 3-.2 3.1-1.9.1-1.8.2-1.7.9.6.9 3.1.2 6.7-1 4.8-.4-.7-1.1-.2-1.8 1.4-.7 1.5-.8 2.4-.2 2 .6-.4 1 .6 1 2.2.1 1.5.2 11 .3 21.1.1 11.6-.2 18.2-.8 18.2-.7 0-.7.3 0 .8.6.4 1.1 1.5 1.2 2.5 0 1-.2 1.6-.5 1.3-.3-.3-1.2-.1-1.9.6-1.1.9-1.7.9-2.4-.3-.7-1.1-.9-1-1 .6 0 1.1-.3 1.4-.6.7-.2-.6-1.2-1.2-2.1-1.2-2.1 0-5.2-2.9-5.2-4.9 0-1.1-.3-1.2-.8-.4-.4.6-.7-7.2-.6-17.3.1-16.9-.1-18.5-1.9-20.5-1.6-1.7-2.6-2-5.6-1.4-2 .4-4 1.1-4.6 1.6-.7.7-.3.8 1 .3 1.8-.7 1.8-.6.6.9-.7.9-1.7 1.5-2.1 1.2-.9-.5-3 4-2.9 6.3 0 1.4.2 1.4 1-.3.7-1.5.8-1.3.3 1-.4 1.6-.9 9-1.3 16.3-.6 12.9-.7 13.5-3.3 15.7-1.5 1.3-2.4 2.6-2.1 2.9.4.3.1.6-.5.6s-2.6-1.5-4.4-3.3l-3.2-3.2.3-20.2c.2-14-.1-20.8-.9-22.4-1-1.7-.9-2 0-1.4 1 .6 1.1.1.6-2-.6-2.2-.2-3.3 2-5.6 1.5-1.6 2.4-2.9 2-2.9-.4 0-.4-.5-.1-1 .3-.6 1.4-1 2.3-.9 1.4 0 1.3.2-.3.9zm140.2-.4c-.3.3-1.2.4-1.9.1-.8-.3-.5-.6.6-.6 1.1-.1 1.7.2 1.3.5zm42.7.5c-.2.4-1.4.5-2.7.3-2-.4-2-.4-.2.5 1.1.5 4.3.8 7 .7 4.6-.2 5.3 0 8.8 3.7 2 2.2 3.7 4.3 3.7 4.8s.3.8.8.8c1.9-.3 2.3.2 1.2 1.6-.7.8-.8 1.5-.3 1.5s1 6.9 1.2 15.6c.1 8.6.6 16.7 1.2 18.1 1.3 3.5 1.1 5.3-.5 4.7-.9-.4-1.3.3-1.3 2.1 0 2.3-4.2 7.5-6.1 7.5-.3 0-2-1.4-3.8-3.1l-3.2-3.1.5-13.9c.5-14.5-.1-21.4-1.8-20.3-.6.3-.7-.4-.3-1.9.5-2.1.1-2.8-2.4-4.1-2.8-1.5-3.2-1.4-6.3.8-1.9 1.2-3.3 3-3.3 3.9.1.9-.2 1.4-.7 1.1-.5-.3-.9.1-.9.8 0 .7-.3 2.4-.5 3.8-.5 2.2-.4 2.3.5.5.9-1.7 1-1.7.4.5-.4 1.4-.8 6.3-1 11-.1 6.4 0 7.4.5 4 .6-3.7.8-3 .7 3.7-.1 4.7-.4 7.5-.9 6.5-.4-1-.5-.4-.2 1.6.3 2.2.1 3.1-.6 2.6-.7-.4-.9.1-.5 1.7.3 1.3.3 1.8 0 1.1-.9-2-2.6-1.4-1.9.8.4 1.1.2 2-.4 2-.6 0-1.1-.5-1.1-1 0-.6-.5-1-1.1-1-.5 0-.7.4-.4 1 .3.5-1.4 0-3.8-1.3-2.6-1.3-3.9-2.5-3.3-2.9.7-.5.7-.8.1-.8s-.9-8.9-.8-25.2c.3-25 .3-25.3 2.5-27 1.3-1 2.7-2.2 3.3-2.6 1.5-1.3 7.5 4.6 6.7 6.6-.4 1.2.3.9 2.5-.8 3.3-2.7 3.6-3.7.6-2.3-1.4.7-2.4.2-4.5-1.9-3.1-3.2-2.7-3.6 1-1 1.9 1.3 3.7 1.6 6.2 1.2 3.1-.5 3.3-.7 1.3-1.4-1.3-.4-2.7-.4-3.3-.1-.5.3-1 .4-1 0 0-.9 4.3-2.4 6.7-2.2 1.2.1 2 .4 1.7.8zm12.1-.1c2.5 1.1-.1 1.1-3.5 0-2-.6-2.1-.8-.5-.8 1.1 0 2.9.3 4 .8zm104.5.4c-.6.6-1.8.5-3.2-.1-2.1-1-2.1-1 .9-.9 1.9.1 2.8.5 2.3 1zm-400 1.7c-1.9 1.1-2.6 1.7-1.5 1.3 3.5-1.3 16.9-2.2 18.5-1.3 1 .6.5.8-1.5.4l-3-.5 3 1.2c1.6.6 3.6 1.7 4.3 2.5.8.7 1.8 1.1 2.3.8.5-.4 1.4.5 2 1.9.7 1.4 1.6 2.3 2.2 1.9.6-.3.7-.1.4.5-.9 1.3.2 4.4 1.3 3.7.4-.3 1 .8 1.3 2.3.3 1.5.7 3.8 1 5.2 1.4 6.7 1.7 11.9.9 14.1-1.7 4.6-2.2 7.9-1.3 7.9.5 0 1.2-1 1.4-2.3.4-1.5.5-1.3.4.8-.1 1.7.2 3.5.6 4.2.9 1.4-3.1 5.9-4.1 4.8-.4-.4.1-1.1 1.1-1.6 2.1-1.2 2.2-3.5.1-4.3-.9-.4-1.3-.2-.8.5.4.6 0 1.5-.7 2-.8.5-1.4 1.8-1.4 3s-.6 2.3-1.3 2.5c-.7.1-.8 0-.2-.3.5-.2 1-1 1-1.6-.1-.7-1.1 0-2.3 1.5-1.2 1.5-4.2 3.6-6.5 4.6-2.6 1.1-3.8 2.2-3 2.5.7.2-1.6.3-5.2 0-5.1-.4-6.2-.2-5 .7 1.3 1 1.2 1.1-.3.6-1-.3-2.3-.6-2.8-.6-.6 0-.8-.4-.5-.9.3-.5-.8-1.4-2.4-2-1.8-.6-2.8-.6-2.5-.1.4.6.1 1-.4 1-.6 0-1.1-.6-1.1-1.3 0-.6-1.6-2.9-3.5-4.9-1.9-2-3.5-4.2-3.5-4.8 0-.7-.8-2.3-1.9-3.6-1.2-1.6-1.9-4.1-2-8.1 0-3.1-.4-5.9-.9-6.2-1.4-1.1-3.2-6.1-2.2-6.1.6 0 1-1 1-2.3 0-1.8-.2-1.9-1.1-.7-.9 1.2-1 1.2-.5-.3.3-1 .7-2.8.7-4 .2-3.4 1.6 2.9 1.9 8.3.2 4.2.3 4.3 1 1.5.4-1.7.8-5.1.9-7.8 0-2.6.5-4.7 1.1-4.7.5 0 .7.8.5 1.7-.3 1 .4-.2 1.6-2.6 1.5-3.2 1.8-4.6.9-5.1-.8-.5-.7-.9.4-1.3.8-.3 1.8-.2 2.1.3.4.6 1.6.3 3-.6 1.4-.9 2.2-2 1.9-2.5-.3-.5 1-1.6 2.8-2.4 4.8-2.1 5.9-1.7 1.8.6zm8.8-1.4c-1 .2-2.6.2-3.5 0-1-.3-.2-.5 1.7-.5s2.7.2 1.8.5zm47.3 4c-.3 3.1-.6 3.9-.9 2.3-.2-1.4-.8-3-1.4-3.7-.6-.8-.3-1.5.9-2.2 1-.6 1.8-1.1 1.8-1.1s-.2 2.1-.4 4.7zm22-2.5l4.8 2.1v28.9c-.1 16-.5 28.6-.9 28.3-.5-.3-.7-1.2-.4-2 .5-1.2.1-1.2-2-.2s-2.3 1.3-.8 1.9c1.6.6 1.6.7 0 .7-.9.1-2-.4-2.3-.9-.4-.7-1.2-.7-2.5 0-2.7 1.4-3.8 1.2-1.7-.4 1.5-1.2 1.5-1.5.2-2.6-.8-.7-1.5-2.2-1.6-3.4-.1-1.9-.2-1.8-.9.4-.4 1.4-.8 1.9-.9 1.2-.1-.7-.6-1-1.1-.7-.6.4-.7 1.1-.4 1.7.5.8.1.9-1 .5-1-.4-1.5-.3-1.1.3.3.6-.3 1-1.4 1-1.1 0-2.7.7-3.5 1.6-.9.8-1.6 1.1-1.6.5 0-.6-1.6-1.1-3.6-1.1-1.9 0-4.5-.5-5.6-1.1-1.6-.8-2.2-.8-2.9.2-.4.7-.5 1.7-.3 2.1.3.4-.2.5-1 .2-1.4-.5-1.4-.8-.1-2.1 1.5-1.5 1.2-3.3-.6-3.3-.6 0-.7.4-.4 1 .3.5.1 1-.5 1-.7 0-.9-.8-.5-2 .4-1.4.2-2-.8-2s-1.4-.7-1-2.3c.4-2.1.4-2.1-1.2.3-1.2 1.8-1.5 1.9-1 .5.8-2.2.7-32.3-.1-42.4-.3-4.1 0-6.8.7-7.8.9-1 1.4-1.1 1.9-.2.6.8 1.3.8 2.9 0 1.7-1 2.7-.8 5.1.6 1.7.9 3.1 2.4 3.1 3.3.1.8.2 8.5.3 17 .1 8.5.5 16.8.8 18.3 1.5 6.7 6.5 8.1 11.6 3.2 3.4-3.2 4.1-5.5 1.8-5.5-1 0-1.2-.7-.8-2.3.5-1.8.7-1.9 1-.4.2.9.8 1.5 1.3 1.2.5-.4.9-6.8.8-14.3-.1-8.4-.4-12.7-.9-11.2-.5 1.6-.8 1.9-.9.8-.1-2.5 3.7-9.5 5.7-10.3 1.5-.6 1.5-.8-.3-1.5-1.1-.5-1.6-.9-1.1-.9.5-.1 3.1.9 5.7 2.1zM267 435c0 .5-.4 1-1 1-.5 0-1-.5-1-1 0-.6.5-1 1-1 .6 0 1 .4 1 1zm95.3-.3c.4.3.2 1.2-.4 2-.9.9-.8 1.3 0 1.3.6 0 1.4-.6 1.7-1.4.4-1.1 1.3-1.2 3.7-.5 6 1.7 6.3 2.9 6.6 25.8.1 11.3.4 21.7.7 23.1.4 2 .3 2.2-.5 1-.9-1.3-1.1-1.3-1.1.2 0 .9.5 1.8 1.1 2 1.9.6 2.2 7.5.5 7.5-2.3 0-2.8-2.8-1-4.8 1-1.1 1.2-1.9.7-1.9-.6 0-1.8 1.1-2.7 2.5-1.9 2.9-8.3 5-10.3 3.3-.7-.6-1.1-1.3-.8-1.6.2-.3 1.1.1 2 .8 1.9 1.6 2 .3.1-1.5-.7-.8-1.6-1.1-2-.8-.3.3-.5-12.5-.4-28.5 0-16.1.4-29.2.8-29.2s1 .3 1.3.7zm8.7.2c0 .5-.9.7-2 .4-1.1-.3-2-.7-2-.9 0-.2.9-.4 2-.4s2 .4 2 .9zm15.8 0c1.1.7 1 .9-.3 1.4-.9.4-1.4.3-1-.2.3-.5-.1-1.2-.7-1.4-.7-.3-.8-.6-.3-.6.6 0 1.6.3 2.3.8zm26.5-.2c-.7.2-1.9.2-2.5 0-.7-.3-.2-.5 1.2-.5s1.9.2 1.3.5zm116.2.2c-.6.5-2.1 1.2-3.5 1.5l-2.5.7 2.5-1.5c2.8-1.7 5-2.1 3.5-.7zm18.5 1.5c0 .4-1.4.6-3 .2-1.9-.3-2.9-.2-2.5.4.3.6 1.4 1 2.4 1 3.7 0 13.1 12.3 13.1 17.2 0 1.1.3 1.7.8 1.5.4-.3.7 3.4.6 8.1-.1 8.7-1.1 15.8-2.1 14.8-.3-.3-1.4 1-2.4 2.9-1.9 3.5-2.6 6.2-1 3.7.7-1.1.9-1.1 1.4.1.4 1.2 0 1.4-1.9 1.1-2.2-.4-2.4-.2-1.9 2.6.5 2.7.3 2.9-.9 1.8-1-.9-1.1-1.5-.2-2 .6-.4.7-.8.3-.8-.5 0-2.2.9-3.8 2.1-1.6 1.1-4.6 2.3-6.6 2.6-3.5.6-3.6.7-1.3 1.3 1.8.5 1 .7-2.5.7-3.8 0-4.4-.2-2.5-.7 2.3-.7 2.2-.8-1-.9-1.9-.1-5.2-1-7.3-2.1-3.6-2-6.5-2.8-3.9-1.1 1.1.7 1.1.9-.1 1.4-1.1.4-1.5 0-1.2-1.3.2-1-.6-2.7-1.7-3.7-1.2-1-1.8-1.2-1.3-.4.6 1 .4 1.2-.4.7-.7-.5-1-1.4-.8-2 .3-.7-.1-1.3-.9-1.3s-1.4.5-1.4 1c0 .6-.3.8-.6.5-.3-.4 0-1.7.7-3 1.1-2 1-2.1-.3-1.1-1.3 1.1-1.5-1.1-1.4-18.5 0-13.8.3-18.9 1-17l.9 2.6 2.8-3.8c3-4.1 6.9-6.7 12.9-8.5 4.2-1.3 18-1.4 18-.1zm32.8.6c.7 1.1 1 2 .6 2-.7 0-3.4-2.7-3.4-3.4 0-1.3 1.6-.5 2.8 1.4zm2.7-.9c1.1 1.7-.1 2.1-1.5.4-.8-.9-.8-1.5-.2-1.5.6 0 1.4.5 1.7 1.1zm24.5-.1c0 .5-.2 1-.4 1-.3 0-.8-.5-1.1-1-.3-.6-.1-1 .4-1 .6 0 1.1.4 1.1 1zm-424.3 2.2c-.3.8-.6.5-.6-.6-.1-1.1.2-1.7.5-1.3.3.3.4 1.2.1 1.9zm11.1-.3c-.7 1.1-1.6 1.7-2 1.4-1-.5 1-3.3 2.3-3.3.5 0 .4.9-.3 1.9zM299 437c0 .5-.2 1-.4 1-.3 0-.8-.5-1.1-1-.3-.6-.1-1 .4-1 .6 0 1.1.4 1.1 1zm75.7.5c.9 2.4-.1 2.7-1.5.5-.8-1.3-.8-2-.2-2 .6 0 1.3.7 1.7 1.5zm49.3-.5c0 .5-.8 1-1.7 1-1.5 0-1.6-.2-.3-1 1.9-1.2 2-1.2 2 0zm181.6.5c1.7 1.6 1.4 1.8-1 .9-.9-.3-1.6-1-1.6-1.5 0-1.3.9-1.1 2.6.6zM162.8 441c.1 2.3-.1 4.7-.6 5.5-.5.9-.8-.7-.8-4 0-6.4 1-7.4 1.4-1.5zm140.7-3c.3.5-.6 2.7-2 4.7-1.4 2.1-2.5 3.3-2.5 2.7 0-.6.9-2.3 2.1-3.8 2.1-2.6 1.4-3.6-1-1.4-1.1 1.1-1.1.9-.2-1 1.2-2.3 2.6-2.8 3.6-1.2zm219 0c-.3.5-1.2 1-1.8 1-.7 0-.6-.4.3-1 1.9-1.2 2.3-1.2 1.5 0zm-304.2 2.6c-.7 1.9-1 1.8-1.6-.5-.3-1.3-.1-1.8.9-1.4.7.2 1 1.1.7 1.9zm-66.5 1.9c-.3.3-.9-.2-1.2-1.2-.6-1.4-.5-1.5.5-.6.7.7 1 1.5.7 1.8zm277.9-.3c-.3-1.2-.1-2.2.3-2.2 1.8 0 2.1 8.4.5 12.5-1 2.6-1.3 3-1 1.2.3-1.5.1-3.7-.5-5-1.1-2.1-1.1-2.1.4-.3 1.5 1.9 1.6 1.8 1.6-1.5 0-2.1-.3-2.9-.8-2.1-.6.9-1.2.5-2-1.3-1.7-3.6-1.4-4.5.4-1.5 1.4 2.4 1.5 2.4 1.1.2zm89.3-1.6s-.8 1.1-1.9 2.2c-2.1 2.5-4.1 3.1-2.1.7.7-.9 1-1.9.6-2.2-.4-.4-1.1-.2-1.5.6-.7 1-.9 1-1.4-.1-.4-1.1.4-1.4 2.9-1.4 1.9.1 3.4.1 3.4.2zm38 1.4c.6 1.2.8 3.1.5 4.3-.6 2.1-.5 2.1.9.3s1.5-1.8 1.3.2c0 1.1-.5 1.8-.9 1.6-.4-.3-.8.1-.8.8 0 .9-.3.9-1-.2-.5-.8-.7-2.4-.4-3.5.5-2.2-1.1-5.3-2.2-4.2-.4.3-.1 1.3.6 2.2 1.8 2.2.4 1.9-1.9-.4-1.8-1.8-1.8-2-.3-2.4 2.9-.8 3.1-.7 4.2 1.3zm2.8.5c-.3.3-.9-.2-1.2-1.2-.6-1.4-.5-1.5.5-.6.7.7 1 1.5.7 1.8zm55.2 6.4v4.4l-2.5-4.8c-2.6-5.2-2.7-7.6-.1-2.8 2 3.6 2 2.3.1-2.5l-1.5-3.7 2 2.5c1.3 1.6 2 4 2 6.9zm.8-6.4c-.3.3-.9-.2-1.2-1.2-.6-1.4-.5-1.5.5-.6.7.7 1 1.5.7 1.8zm-264.4 1.9c-.3 1.5-.8 2.5-1.1 2.3-.2-.3-.1-1.7.3-3.1.3-1.5.8-2.5 1.1-2.3.2.3.1 1.7-.3 3.1zm-82.4.4c0 1.5-.2 1.5-1 .2-1.3-2-1.3-3.3 0-2.5.6.3 1 1.4 1 2.3zm-1.7 1.5c.3.8-.1 1.4-.9 1.4-1.5 0-1.8-.9-.7-2 .9-.9 1-.9 1.6.6zm-49.5 24.2c-.1 11.8 0 20.7.3 19.7.5-1.4.9-1.1 2.2 1.5.9 1.7 2.5 3.3 3.4 3.6 1 .2-.2.3-2.7.3l-4.5-.1v-24.7c0-13.7.4-24 .8-23.2.5.9.7 11.2.5 22.9zm-35-13.9l-.3 7.9-.5-8.7c-.3-4.8-.1-8.3.3-7.9.4.4.7 4.3.5 8.7zm168.2-7.7c0 .3-.4 1.2-.9 1.9-.6 1-1 .7-1.3-1.1-.4-1.8-.1-2.4.9-2 .7.3 1.3.8 1.3 1.2zm-194.2 3.2c-.3 2-.5 1.9-.9-.9-.3-2-.2-2.9.4-2.3.5.5.7 1.9.5 3.2zm23.4 6.6c.2 4 0 6.7-.4 6-.4-.7-.7-4.8-.6-9.2.1-9 .5-7.6 1 3.2zm-21.5-7.5c-.3.8-.6.5-.6-.6-.1-1.1.2-1.7.5-1.3.3.3.4 1.2.1 1.9zM325 450c0 .5-1.3 1.6-3 2.5-1.7.9-3 1.1-3 .5 0-.5.7-1 1.5-1 .9 0 1.8-.7 2.1-1.5.7-1.7 2.4-2.1 2.4-.5zm-79 1.4c0 1.1-1.9 1.5-2.5.6-.3-.5.1-1 .9-1 .9 0 1.6.2 1.6.4zm166 .6c0 .5-.4 1-1 1-.5 0-1-.5-1-1 0-.6.5-1 1-1 .6 0 1 .4 1 1zm147.7 1.2c-.3.8-.6.5-.6-.6-.1-1.1.2-1.7.5-1.3.3.3.4 1.2.1 1.9zm-287 2c-.3.7-.5.2-.5-1.2s.2-1.9.5-1.3c.2.7.2 1.9 0 2.5zm79 0c-.3.7-.5.2-.5-1.2s.2-1.9.5-1.3c.2.7.2 1.9 0 2.5zm-56.4-1.5c-.7.2-1.9.2-2.5 0-.7-.3-.2-.5 1.2-.5s1.9.2 1.3.5zm30.7.3c0 .5-.2 1-.4 1-.3 0-.8-.5-1.1-1-.3-.6-.1-1 .4-1 .6 0 1.1.4 1.1 1zm-167.9 3.1c-.5 1.3-1 1.9-1 1.2-.1-1.5 1-4.5 1.5-4 .3.2 0 1.5-.5 2.8zm89.6-2.5c-.3.3-1.2.4-1.9.1-.8-.3-.5-.6.6-.6 1.1-.1 1.7.2 1.3.5zm157.6.1c-.7.2-1.9.2-2.5 0-.7-.3-.2-.5 1.2-.5s1.9.2 1.3.5zm5 0c.3.5-.1 1.3-.8 2-1 1-1.4.9-1.8-.1-.8-2.1 1.5-3.7 2.6-1.9zm21.4 1.5c-.3.8-.6.5-.6-.6-.1-1.1.2-1.7.5-1.3.3.3.4 1.2.1 1.9zm184 1c-.3.7-.5.2-.5-1.2s.2-1.9.5-1.3c.2.7.2 1.9 0 2.5zm-377.7.3c1.9 3.6.8 4-1.2.4-.9-1.6-1.4-2.9-.9-2.9.4 0 1.4 1.1 2.1 2.5zm84.7-1.9c-.3.3-1.2.4-1.9.1-.8-.3-.5-.6.6-.6 1.1-.1 1.7.2 1.3.5zm-239 2.6c-.3.8-.6.5-.6-.6-.1-1.1.2-1.7.5-1.3.3.3.4 1.2.1 1.9zm191 10c-.2 2.4-.4.5-.4-4.2s.2-6.6.4-4.3c.2 2.4.2 6.2 0 8.5zm-115-9c-.3.8-.6.5-.6-.6-.1-1.1.2-1.7.5-1.3.3.3.4 1.2.1 1.9zm152 .4c-.3.3-1.2.4-1.9.1-.8-.3-.5-.6.6-.6 1.1-.1 1.7.2 1.3.5zm98.6 9.6c-.3 5.7-.8 10.6-1.2 11-.3.4-.3-3.7 0-9 .9-12.8.8-12.2 1.3-12.2.2 0 .2 4.6-.1 10.2zm-172-5.6c.7-.1.9-.1.5.1-.5.3-.9 5.9-.9 12.6-.2 15.2-.7 13.4-1.1-3.8-.2-7.2-.2-12 0-10.8.2 1.2.9 2.1 1.5 1.9zM85 466.9c0 3.2-.6 2.4-1.4-1.9-.4-2.5-.3-3.1.4-2 .5.8 1 2.6 1 3.9zm328.2 4.8c-.3 7.5-.8 10.5-2.3 12.8-2.2 3.6-2.5 2-.4-2.1.9-1.8 1.5-5.7 1.5-10.1 0-5.8.6-10.3 1.4-10.3 0 0-.1 4.4-.2 9.7zM309 464.5c-1.4 1.7-3.6 2-4.4.6-.4-.5.4-.7 1.6-.3 1.4.3 1.9.2 1.4-.6-.4-.7-.1-1.2 1-1.2 1.3 0 1.4.3.4 1.5zM83.9 476.4c.2 6-.6 3.9-1.2-3.4-.3-4.1-.2-5.4.3-3.5.4 1.6.8 4.8.9 6.9zm22.5-3.1c-.3 1 .2 2.9 1 4.2.9 1.4 1.2 2.5.6 2.5-.5 0-1-.6-1-1.3 0-.9-.2-.9-.8 0-.4.7-.8-1.3-.9-4.4-.1-3.6.2-5.1.8-4.2.5.8.6 2.2.3 3.2zm52.6-1.6c0 2.1-.3 2.4-.9 1.4-.5-.8-.7-2-.4-2.8.8-2.1 1.3-1.5 1.3 1.4zm4.7 2.5c-.3.8-.6.5-.6-.6-.1-1.1.2-1.7.5-1.3.3.3.4 1.2.1 1.9zm20.4 1.2c-.4.6-1 1.8-1.3 2.6-.3 1-.6.8-1-.8-.4-1.4-.2-2 .4-1.6.7.4.7-.2.3-1.7-.7-2.1-.6-2.2.9-1 1 .8 1.3 1.8.7 2.5zm4.6-2.8c-.3.3-1.2.4-1.9.1-.8-.3-.5-.6.6-.6 1.1-.1 1.7.2 1.3.5zm84 5.6c-.2 1.3-.4.3-.4-2.2s.2-3.5.4-2.3c.2 1.3.2 3.3 0 4.5zm79-2c-.3.7-.5.2-.5-1.2s.2-1.9.5-1.3c.2.7.2 1.9 0 2.5zm-161.6.3c-2.3 1-3.1 2-2.7 3 .6 1.7-.9 2.1-1.9.4-1.1-1.6 2.5-4.9 5.4-4.9 2.5.1 2.4.2-.8 1.5zm-29.1 3c0 .5-.5.3-1-.5s-1-2-1-2.5c0-.6.5-.3 1 .5s1 1.9 1 2.5zm2.3 5.7c-.3 1-.9 1.8-1.4 1.8-1.2 0-1.2-1.7 0-2.4.5-.3.7-2.5.5-4.9l-.3-4.2.8 3.9c.5 2.1.6 4.7.4 5.8zM55 482c0 1.1-.4 2-1 2-.5 0-1-.9-1-2s.5-2 1-2c.6 0 1 .9 1 2zm26.7.2c-.3.8-.6.5-.6-.6-.1-1.1.2-1.7.5-1.3.3.3.4 1.2.1 1.9zm21 3c-.2 1.3-.4.5-.4-1.7-.1-2.2.1-3.2.4-2.3.2 1 .2 2.8 0 4zM303 481c0 .5-.2 1-.4 1-.3 0-.8-.5-1.1-1-.3-.6-.1-1 .4-1 .6 0 1.1.4 1.1 1zm191.4.5c-.4.8-.8 1.5-1 1.5-.2 0-.4-.7-.4-1.5s.4-1.5 1-1.5c.5 0 .7.7.4 1.5zm-333.7 1.7c-.3.8-.6.5-.6-.6-.1-1.1.2-1.7.5-1.3.3.3.4 1.2.1 1.9zm397.3-.7c-.7.9-1 1.9-.6 2.2.4.4 1.1.1 1.6-.7 1.1-1.7 1.3-.9.4 1.4-.8 2-2 2-2.8.1-.7-1.9.3-4.5 1.6-4.5.6 0 .5.7-.2 1.5zm-62.3 1.7c-.3.8-.6.5-.6-.6-.1-1.1.2-1.7.5-1.3.3.3.4 1.2.1 1.9zm-416 1c-.3.8-.6.5-.6-.6-.1-1.1.2-1.7.5-1.3.3.3.4 1.2.1 1.9zm4.8-.3c.3.5.1 1.2-.5 1.6-.5.3-1-.1-1-.9 0-1.8.6-2.1 1.5-.7zm347.2 1.3c-.3.8-.6.5-.6-.6-.1-1.1.2-1.7.5-1.3.3.3.4 1.2.1 1.9zm-272.3.3c-.6 1.6-2.4 2.1-2.4.7 0-1.1 1.1-2.2 2.1-2.2.5 0 .6.7.3 1.5zm-43.1 5.5c-.6.7-2.3-2.3-2.3-4 0-.8.6-.4 1.3 1 .8 1.4 1.2 2.7 1 3zm296.3-2.5c.1 1.4-.2 2.5-.7 2.5-1 0-1.2-3.3-.2-4.3.3-.4.7-.7.7-.7.1 0 .2 1.1.2 2.5zm-357.9 2.2c-.3 1-.5.4-.5-1.2 0-1.7.2-2.4.5-1.8.2.7.2 2.1 0 3zm27.3 3c-1 1.6-1.1 1.5-.6-.7.3-1.4.6-3.4.7-4.5.1-1.3.3-1.1.6.7.2 1.5-.1 3.5-.7 4.5zm195.3-4.7c.3 1.1.1 2-.4 2s-.9-.9-.9-2 .2-2 .4-2 .6.9.9 2zM81 490c0 .5-.2 1-.4 1-.3 0-.8-.5-1.1-1-.3-.6-.1-1 .4-1 .6 0 1.1.4 1.1 1zm348.2 1.2c-.7.7-1.2.8-1.2.2 0-1.4 1.2-2.6 1.9-1.9.2.3-.1 1.1-.7 1.7zm45.8 2c-.1.8-.6.6-1.5-.6-2-2.6-1.9-4.2 0-2.2.8.8 1.5 2.1 1.5 2.8zm-441-1.6c0 .8-.5 1.2-1 .9-.6-.4-.8-1.1-.5-1.6.9-1.4 1.5-1.1 1.5.7zm461.1 2.1c-.9 1.7-6.1 2.7-6.1 1.2 0-1.4 2.4-2.3 2.8-1.1.7 2.1 2 1.3 2.7-1.6.4-1.5.9-2.2 1.2-1.5.2.7 0 2-.6 3zm-416.5-.9c.1.7 0 .8-.3.2-.9-1.8-2.5-1.1-2 .9.3 1.4.1 1.8-.9 1.4-1.7-.6-1.8-1.5-.2-3.1 1.4-1.4 3.1-1.1 3.4.6zM250 492c0 .5-.4 1-1 1-.5 0-1-.5-1-1 0-.6.5-1 1-1 .6 0 1 .4 1 1zm158.7 1.2c-.3.8-.6.5-.6-.6-.1-1.1.2-1.7.5-1.3.3.3.4 1.2.1 1.9zm175.8-1.2c.8 1.3-.5 1.3-2.5 0-1.3-.8-1.3-1 .2-1 .9 0 2 .4 2.3 1zm-528.4 2.7c-1.2 2-1.4 1.4-.5-1.2.4-.9.9-1.4 1.1-1.1.3.2 0 1.3-.6 2.3zm2.1.5c-.8.8-.9.4-.5-1.3.4-1.3.8-1.8 1.1-1 .2.7-.1 1.8-.6 2.3zm85.5-1.8c0 .8-.6 1.2-1.5.9-1.1-.5-1.1-.7 0-1.4.7-.5 1.3-.9 1.4-.9 0 0 .1.6.1 1.4zm7.3.1c-1.4 1.7-3 2-3 .6 0-.5.8-1.2 1.8-1.4.9-.3 1.9-.5 2.1-.6.2 0-.2.6-.9 1.4zm44.4.9c-.5 1.4-.9 1.5-1.5.5-.5-.8-.3-1.7.4-2.1 1.5-.9 1.9-.4 1.1 1.6zM431 494c0 1.1-.4 2-.9 2s-.7-.9-.4-2c.3-1.1.7-2 .9-2 .2 0 .4.9.4 2zm95.5.3c.6.5 0 .5-1.3.2-1.3-.4-2.9-.3-3.5.2-.7.4-.4 0 .6-1 1.1-1 2.3-1.4 2.6-1 .3.4 1.1 1.1 1.6 1.6zm23.8-.9c1.7 1.3 1.7 1.4 0 2-1 .4-1.4.4-1 0 .4-.4-.1-1.3-1.1-2-.9-.7-1.2-1.3-.7-1.3.6 0 1.8.6 2.8 1.3zm-513.9 1.1c-.4.8-.8 1.5-1 1.5-.2 0-.4-.7-.4-1.5s.4-1.5 1-1.5c.5 0 .7.7.4 1.5zm13.9 0c-.3.9-.8 1.4-1 1.1-.3-.3-.2-.9.2-1.5.9-1.6 1.5-1.3.8.4zm72.7-.5c-1.2.8-1.2 1-.1 1 .8 0 1.2.2.9.5-.3.3-1.3.2-2.2-.1-1.4-.5-1.5-.9-.4-1.5.7-.5 1.8-.9 2.3-.9.6 0 .3.5-.5 1zm108 1c-.8.5-1.7.7-1.9.4-.3-.3.1-.9.9-1.4.8-.5 1.7-.7 1.9-.4.3.3-.1.9-.9 1.4zm81.5-1.1c.3.5.2 1.2-.3 1.5-.5.3-.9-.1-.9-.9 0-1.7.3-1.9 1.2-.6zm28.4.5c1 1.1.7 1.4-1.2 1.2-1.5 0-2.3-.6-2-1.4.7-1.6 1.8-1.5 3.2.2zm47.1.1c.7.8.9 1.5.6 1.5-.4 0-1.4-.7-2.2-1.5-.9-.8-1.1-1.5-.6-1.5.5 0 1.5.7 2.2 1.5zm29-.5c.8.5 1.2 1.1 1 1.4-.3.2-1.4-.2-2.4-1-2.2-1.5-1-1.9 1.4-.4zm11 0c0 .5-.5 1-1.1 1-.5 0-.7-.5-.4-1 .3-.6.8-1 1.1-1 .2 0 .4.4.4 1zm-252.5 1c.3.6-.1.7-.9.4-1.8-.7-2.1-1.4-.7-1.4.6 0 1.3.4 1.6 1zm15.5 0c-.8.5-2.2.9-3 .9-1 0-.8-.3.5-.9 2.7-1.2 4.3-1.2 2.5 0zm62 0c0 .5-.7.7-1.5.4-.8-.4-1.5-.8-1.5-1 0-.2.7-.4 1.5-.4s1.5.4 1.5 1zm46-.6c0 .3-.4.8-1 1.1-.5.3-1 .1-1-.4 0-.6.5-1.1 1-1.1.6 0 1 .2 1 .4zm10 .6c-2 1.3-3.3 1.3-2.5 0 .3-.6 1.4-1 2.3-1 1.5 0 1.5.2.2 1zm22-.5c0 .7-3 1.3-3.4.7-.3-.4.4-.9 1.5-.9 1-.1 1.9 0 1.9.2zm216 0c0 .7-3 1.3-3.4.7-.3-.4.4-.9 1.5-.9 1-.1 1.9 0 1.9.2zm-221.7 1.2c-.7.2-1.9.2-2.5 0-.7-.3-.2-.5 1.2-.5s1.9.2 1.3.5zm152.4-.1c-.3.3-1.2.4-1.9.1-.8-.3-.5-.6.6-.6 1.1-.1 1.7.2 1.3.5zM583.6 509c-.1 1.6-.4 3-.8 3-1 0-1-2.2-.2-4.4.9-2.3 1.1-2 1 1.4zm-8.6 7c-.8.5-1.9 1-2.5 1-.5 0-.3-.5.5-1s2-1 2.5-1c.6 0 .3.5-.5 1zm-4.5 1.8c-.3.3-1.1 0-1.8-.7-.9-1-.8-1.1.6-.5 1 .3 1.5.9 1.2 1.2z"/><path d="M352.5 171c-.4 1.1-1.1 1.8-1.6 1.4-1.1-.6-3.9 1.3-3.9 2.7 0 1.6 1.6 1 4.8-1.9 3.3-2.9 3.9-4.2 2.3-4.2-.5 0-1.3.9-1.6 2zM297.1 245.6c0 1.1.3 1.4.6.6.3-.7.2-1.6-.1-1.9-.3-.4-.6.2-.5 1.3zM314 252.1c0 .5.5.7 1 .4.6-.3 1-.8 1-1.1 0-.2-.4-.4-1-.4-.5 0-1 .5-1 1.1zM538 306c0 .5.5 1 1 1 .6 0 1-.5 1-1 0-.6-.4-1-1-1-.5 0-1 .4-1 1zM555 324.8c0 .5.9 1.7 2 2.7 2 1.8 2.1 1.8 1.2-.5-.9-2.4-3.2-4-3.2-2.2zM84.9 444.7c0 1-.2 2.8-.3 4-.2 1.3.1 2.3.6 2.3.4 0 .8-1.8.8-4 0-3.9-.9-5.8-1.1-2.3zM51.2 448c0 1.4.2 1.9.5 1.2.2-.6.2-1.8 0-2.5-.3-.6-.5-.1-.5 1.3zM308 442.6c0 .8.5 1.2 1 .9.6-.3 1-1 1-1.6 0-.5-.4-.9-1-.9-.5 0-1 .7-1 1.6zM331 468.6c-1.9.9-4.3 2-5.2 2.5-2.3 1.2-3.7 1.1-1.8-.1 1.3-.9 1.3-1-.1-1-1.9 0-5.9 3.6-5.9 5.3 0 .7.4.6 1-.3.6-.9 1-1 1-.3 0 .6-.4 1.4-1 1.8-.5.3-.6 1.5-.1 2.8.7 1.8 1.7 2.2 5.8 2.4 5.6.3 8.6-1.8 9.8-7 .6-2.3.5-2.6-1.1-2.2-1.2.4-1.1.1.4-.6 2.4-1.3 2.9-2.9 1-2.9-.9 0-.8-.4.2-1 2.3-1.5-.1-1.1-4 .6zm1.5 1.4c.3.5.1 1-.4 1-.6 0-1.1-.5-1.1-1 0-.6.2-1 .4-1 .3 0 .8.4 1.1 1zm-3.5 2c0 .5-.2 1-.4 1-.3 0-.8-.5-1.1-1-.3-.6-.1-1 .4-1 .6 0 1.1.4 1.1 1zm2.6 5.7c-.8 1.6-2.2 3-3 3-.8 0-1.3-.4-1-.9.3-.5.9-.6 1.3-.4.4.3 1.3-.9 2-2.5.7-1.7 1.5-2.8 1.8-2.6.2.3-.2 1.8-1.1 3.4zM350.1 490.6c0 1.1.3 1.4.6.6.3-.7.2-1.6-.1-1.9-.3-.4-.6.2-.5 1.3zM300 492c0 .5.9 1.4 2 2 2.2 1.2 2.7.1.8-1.8-1.4-1.4-2.8-1.6-2.8-.2zM347.5 493c-.3.5.1 1 1 1s1.3-.5 1-1c-.3-.6-.8-1-1-1-.2 0-.7.4-1 1zM580.5 442.1c-.4.6-.5 1.2-.2 1.5.2.3.7-.2 1-1.1.7-1.7.1-2-.8-.4zM591 449c0 .5-.9 1-2 1-2.2 0-6.5 3.8-5.5 4.8.3.4 1 0 1.5-.8.7-1.2 1.2-1.2 2.2-.2 1.5 1.5 5.5 1.6 6 .1.2-.7.8-.6 1.6.4 1.1 1.3.5 1.4-4.2 1.2-6.7-.3-8 .5-7.3 4.1.4 2.5.3 2.6-.7 1.1-2.2-2.9-1.5 12.2.7 15.6 2.5 3.9 6.2 6 9.2 5.3 3-.8 6.5-4.4 6.5-6.8 0-1 .5-1.8 1.1-1.8.7 0 .9-2.9.5-8.8-.3-4.8-.5-8.8-.5-9-.1-.2-.5 0-1.1.3-.5.3-.7 0-.5-.7.3-.8-.6-2.5-1.9-3.7-2.2-2.1-2.6-2.2-3.2-.7-.9 2.3-2.7 2-1.9-.4.3-1.1.4-2 .1-2-.3 0-.6.4-.6 1zm-2 3c0 .5-.4 1-1 1-.5 0-1-.5-1-1 0-.6.5-1 1-1 .6 0 1 .4 1 1zm7.5.1c1.1 1.6.1 1.9-1.3.3-.7-.8-.8-1.4-.3-1.4s1.3.5 1.6 1.1zm-12.8 16.6c-.3 1-.5.2-.5-1.7s.2-2.7.5-1.8c.2 1 .2 2.6 0 3.5zm2.4 3.9c1.5 0 3.4.8 4.3 1.7 1 .9 1.3 1.7.7 1.7-.5 0-1.3-.5-1.7-1.1-.3-.6-1.9-.9-3.5-.7-1.6.3-2.9.3-2.9.2 0-.1-.3-1.1-.6-2.1-.3-1.1-.2-1.4.3-.7.4.6 2 1 3.4 1zm11.2.6c-.4.7-.6 2-.5 2.9.2.9-.5 2.2-1.5 3-1.6 1.3-1.7 1.2-.4-.3.7-1 1-2.5.7-3.4-.7-1.8 0-3.4 1.5-3.4.6 0 .7.6.2 1.2zm-3.6 4c-.3.8-.6.5-.6-.6-.1-1.1.2-1.7.5-1.3.3.3.4 1.2.1 1.9zm-4.3 1c.9 1.2 1.6 1.7 1.6 1s.5-1 1.1-.6c.8.5.6 1-.5 1.6-1.3.7-2.3.3-4.1-1.6-1.6-1.8-1.9-2.6-1-2.6.8 0 2.1 1 2.9 2.2zM261 442.9c-.6 1.2-.7 2.1-.1 2.1 1 0 2.4-3 1.7-3.7-.2-.3-.9.5-1.6 1.6zM262.1 454.6c0 1.1.3 1.4.6.6.3-.7.2-1.6-.1-1.9-.3-.4-.6.2-.5 1.3zM128.7 449.7c-1.8.5-1.8.5 0 1.9 1.6 1.3 1.5 1.4-1.4.9-3-.5-3.3-.3-4.2 3.2-1.3 4.7-1.4 6.2-.1 4.3.7-1.1.9-.5.6 2-.6 4.8-.6 4.8-1.6 2.5-1.6-3.8-1.1 1 .6 5.6.9 2.4 1.6 5.1 1.6 5.9-.1 2.1 6.5 6.4 7.2 4.7.3-.9.7-.9 1.4.2.7.9 1.2 1 1.6.2.4-.6 1.1-.9 1.6-.6.4.3.6-2 .5-5-.3-4.7-.1-5.3 1.1-4.1 1.5 1.6 1.9 3 .6 2.2-.5-.3-.9.8-.9 2.5s.5 2.8 1.1 2.6c.6-.2 1-1.1 1-2-.1-.9.2-1.4.7-1.1.5.3.9.2 1-.3.3-2.7.9-6.2 1.5-8.7.5-2.3.4-2.7-.7-2.1-1.1.6-1.2.5-.1-.6 1.7-1.8 1.5-3-.3-2.3-1 .4-1.5 0-1.5-1.6 0-1.1.5-1.8 1-1.5 1.4.9 1.2-1.5-.4-4.4-1.1-1.9-1.4-2.1-1.9-.7-.4.9-1.2 1.6-1.9 1.5-1 0-1-.2 0-.6 2.1-.8 1.3-3.3-1.4-4.3-2.6-1-3.7-1.1-6.7-.3zm4.3 1.3c0 .5-.4 1-1 1-.5 0-1-.5-1-1 0-.6.5-1 1-1 .6 0 1 .4 1 1zm4 1c0 .5-.7 1-1.6 1-.8 0-1.2-.5-.9-1 .3-.6 1-1 1.6-1 .5 0 .9.4.9 1zm-11.3 3c.1 1.1-.2 2.2-.8 2.5-.7.5-.7-1.8 0-4.3.3-.8.7.1.8 1.8zm14.8 1c.3.5.1 1-.4 1-.6 0-1.1-.5-1.1-1 0-.6.2-1 .4-1 .3 0 .8.4 1.1 1zm-3.8 3.2c-.3.8-.6.5-.6-.6-.1-1.1.2-1.7.5-1.3.3.3.4 1.2.1 1.9zm1.8 3.2c-.4 2-1.1 3.4-1.5 3.1-.4-.2-.2-2 .4-3.9 1.3-4.4 1.9-3.9 1.1.8zm-12.8 3.3c-.3 1-.5.2-.5-1.7s.2-2.7.5-1.8c.2 1 .2 2.6 0 3.5zm14 3.5c-.3.7-.5.2-.5-1.2s.2-1.9.5-1.3c.2.7.2 1.9 0 2.5zm-15 2.5c-.3 1-.5.4-.5-1.2 0-1.7.2-2.4.5-1.8.2.7.2 2.1 0 3zm2.4 4c-1.2 2-1.4 1.4-.5-1.2.4-.9.9-1.4 1.1-1.1.3.2 0 1.3-.6 2.3zM165 439.2c0 1.9.2 2 1 .8 1.3-1.9 1.3-3 0-3-.5 0-1 1-1 2.2zM373 493c0 .5.5 1 1 1 .6 0 1-.5 1-1 0-.6-.4-1-1-1-.5 0-1 .4-1 1zM533.6 449.9c-.4.6-1.4.8-2.4.5-1.3-.5-1.4-.4-.3.4 1 .7 1 1.1.1 1.7-.7.4-1.6.2-2-.5-.6-.9-1-.6-1.6 1.1-.4 1.3-.7 3-.6 3.6.2.7-.2 1.3-.9 1.3-.8 0-.9 1-.5 3 .3 1.7.2 2.9-.2 2.6-.7-.4-.8.5-.3 6.8.1 1.2.6 1.6 1.6 1.2 1.2-.4 1.3-.2.3 1.4-1.1 1.6-.7 2.4 2.4 5.5 3.2 3.2 4.1 3.6 6.8 3 3.7-.8 8.1-5.2 7.3-7.2-.3-.8 0-1.9.7-2.3 1.3-.8 2.3-11 1-11-.4 0-.8-1-.9-2.3-.1-5.7-.2-5.7-3.5-4.1l-3.1 1.5 2.4-1.9c2.7-2.2 2.3-3.7-1.3-4.4-1.9-.4-2.3-.1-1.9 1.1.4 1.3.1 1.2-1-.2-.9-1.1-1.8-1.4-2.1-.8zm6.4 2.1c0 .5-.4 1-1 1-.5 0-1-.5-1-1 0-.6.5-1 1-1 .6 0 1 .4 1 1zm-5.9.9c-.7.5-1.1 1.3-.7 1.9.4.6-.2.8-1.4.5-1.9-.5-2-.6-.3-1.9 1-.7 2.3-1.3 2.8-1.4.6 0 .4.4-.4.9zm-7.4 16.3c-.3.8-.6.5-.6-.6-.1-1.1.2-1.7.5-1.3.3.3.4 1.2.1 1.9zm5 3.4c-.3.3-1.2.4-1.9.1-.8-.3-.5-.6.6-.6 1.1-.1 1.7.2 1.3.5zm7.3.3c0 .6-.4 1.3-1 1.6-.5.3-1-.1-1-.9 0-.9.5-1.6 1-1.6.6 0 1 .4 1 .9zm-7.4 3.3c.2-.1.4.1.5.5 0 .5.8 1.6 1.6 2.5 1.4 1.6 1.4 1.8.1 1.8-.9 0-1.8-.9-2.1-2.1-.3-1.1-1.5-2.3-2.6-2.6-1.2-.3-2.1-1.2-2.1-2.1 0-1.2.4-1.2 2.1.4 1.2 1 2.3 1.8 2.5 1.6zm10.2-1c-.2.6-1 1.4-1.6 1.6-.7.2-1-.2-.6-1.2.7-1.8 2.8-2.2 2.2-.4zm-6.1 3c-.3.8-.6.5-.6-.6-.1-1.1.2-1.7.5-1.3.3.3.4 1.2.1 1.9zM218 493.5c0 .8.5 1.5 1 1.5.6 0 1-.7 1-1.5s-.4-1.5-1-1.5c-.5 0-1 .7-1 1.5z"/></svg>